<mxfile host="app.diagrams.net" agent="Mozilla/5.0 (Windows NT 10.0; Win64; x64) AppleWebKit/537.36 (KHTML, like Gecko) Chrome/135.0.0.0 Safari/537.36 Edg/135.0.0.0" version="26.2.9">
  <diagram name="第 1 页" id="4UG25Fp_B6W0l5dKrZMW">
    <mxGraphModel dx="3363" dy="3037" grid="1" gridSize="10" guides="1" tooltips="1" connect="1" arrows="1" fold="1" page="0" pageScale="1" pageWidth="1654" pageHeight="2336" math="0" shadow="0">
      <root>
        <mxCell id="0" />
        <mxCell id="1" parent="0" />
        <mxCell id="oYlRctocb77fKKuBrY3P-28" value="" style="ellipse;whiteSpace=wrap;html=1;aspect=fixed;labelBackgroundColor=#000000;labelBorderColor=default;fontColor=#000000;" parent="1" vertex="1">
          <mxGeometry as="geometry" />
        </mxCell>
        <mxCell id="oYlRctocb77fKKuBrY3P-1" value="&lt;font style=&quot;font-size: 50px;&quot;&gt;A1&lt;/font&gt;" style="triangle;whiteSpace=wrap;html=1;strokeWidth=6;fontColor=#000000;" parent="1" vertex="1">
          <mxGeometry x="295" y="240" width="120" height="160" as="geometry" />
        </mxCell>
        <mxCell id="oYlRctocb77fKKuBrY3P-2" value="" style="endArrow=none;html=1;rounded=0;exitX=0;exitY=0.25;exitDx=0;exitDy=0;strokeWidth=4;fontColor=#000000;" parent="1" source="oYlRctocb77fKKuBrY3P-1" edge="1">
          <mxGeometry width="50" height="50" relative="1" as="geometry">
            <mxPoint x="335" y="360" as="sourcePoint" />
            <mxPoint x="10" y="280" as="targetPoint" />
          </mxGeometry>
        </mxCell>
        <mxCell id="oYlRctocb77fKKuBrY3P-3" value="" style="endArrow=none;html=1;rounded=0;exitX=0;exitY=0.75;exitDx=0;exitDy=0;strokeWidth=4;fontColor=#000000;" parent="1" source="oYlRctocb77fKKuBrY3P-1" edge="1">
          <mxGeometry width="50" height="50" relative="1" as="geometry">
            <mxPoint x="315" y="360" as="sourcePoint" />
            <mxPoint x="90" y="360" as="targetPoint" />
          </mxGeometry>
        </mxCell>
        <mxCell id="oYlRctocb77fKKuBrY3P-4" value="" style="endArrow=none;html=1;rounded=0;entryX=1;entryY=0.5;entryDx=0;entryDy=0;strokeWidth=4;fontColor=#000000;" parent="1" target="oYlRctocb77fKKuBrY3P-1" edge="1">
          <mxGeometry width="50" height="50" relative="1" as="geometry">
            <mxPoint x="475" y="320" as="sourcePoint" />
            <mxPoint x="275" y="380" as="targetPoint" />
          </mxGeometry>
        </mxCell>
        <mxCell id="oYlRctocb77fKKuBrY3P-5" value="&lt;font style=&quot;font-size: 50px;&quot;&gt;+&lt;/font&gt;" style="text;html=1;align=center;verticalAlign=middle;resizable=0;points=[];autosize=1;strokeColor=none;fillColor=none;strokeWidth=4;fontColor=#000000;" parent="1" vertex="1">
          <mxGeometry x="245" y="225" width="50" height="70" as="geometry" />
        </mxCell>
        <mxCell id="oYlRctocb77fKKuBrY3P-6" value="&lt;font style=&quot;font-size: 50px;&quot;&gt;-&lt;/font&gt;" style="text;html=1;align=center;verticalAlign=middle;resizable=0;points=[];autosize=1;strokeColor=none;fillColor=none;strokeWidth=4;fontColor=#000000;" parent="1" vertex="1">
          <mxGeometry x="250" y="345" width="40" height="70" as="geometry" />
        </mxCell>
        <mxCell id="oYlRctocb77fKKuBrY3P-13" value="&lt;font style=&quot;font-size: 50px;&quot;&gt;A2&lt;/font&gt;" style="triangle;whiteSpace=wrap;html=1;strokeWidth=6;fontColor=#000000;" parent="1" vertex="1">
          <mxGeometry x="295" y="560" width="120" height="160" as="geometry" />
        </mxCell>
        <mxCell id="oYlRctocb77fKKuBrY3P-14" value="" style="endArrow=none;html=1;rounded=0;exitX=0;exitY=0.25;exitDx=0;exitDy=0;strokeWidth=4;fontColor=#000000;" parent="1" source="oYlRctocb77fKKuBrY3P-13" edge="1">
          <mxGeometry width="50" height="50" relative="1" as="geometry">
            <mxPoint x="335" y="680" as="sourcePoint" />
            <mxPoint x="195" y="600" as="targetPoint" />
          </mxGeometry>
        </mxCell>
        <mxCell id="oYlRctocb77fKKuBrY3P-15" value="" style="endArrow=none;html=1;rounded=0;exitX=0;exitY=0.5;exitDx=0;exitDy=0;strokeWidth=4;fontColor=#000000;entryX=0;entryY=0.5;entryDx=0;entryDy=0;strokeColor=#000000;" parent="1" source="9ELfS6WFHughq5BFfpC6-15" target="rsWcSZFI2ZlMxmA-CvCg-13" edge="1">
          <mxGeometry width="50" height="50" relative="1" as="geometry">
            <mxPoint x="315" y="680" as="sourcePoint" />
            <mxPoint x="-60" y="680" as="targetPoint" />
          </mxGeometry>
        </mxCell>
        <mxCell id="oYlRctocb77fKKuBrY3P-16" value="" style="endArrow=none;html=1;rounded=0;entryX=1;entryY=0.5;entryDx=0;entryDy=0;strokeWidth=4;fontColor=#000000;" parent="1" target="oYlRctocb77fKKuBrY3P-13" edge="1">
          <mxGeometry width="50" height="50" relative="1" as="geometry">
            <mxPoint x="475" y="640" as="sourcePoint" />
            <mxPoint x="275" y="700" as="targetPoint" />
          </mxGeometry>
        </mxCell>
        <mxCell id="oYlRctocb77fKKuBrY3P-19" value="" style="rounded=0;whiteSpace=wrap;html=1;direction=south;strokeWidth=6;fontColor=#000000;" parent="1" vertex="1">
          <mxGeometry x="175" y="160" width="40" height="80" as="geometry" />
        </mxCell>
        <mxCell id="oYlRctocb77fKKuBrY3P-20" value="" style="rounded=0;whiteSpace=wrap;html=1;direction=south;fontStyle=1;strokeWidth=6;fontColor=#000000;" parent="1" vertex="1">
          <mxGeometry x="175" y="440" width="40" height="80" as="geometry" />
        </mxCell>
        <mxCell id="oYlRctocb77fKKuBrY3P-21" value="" style="rounded=0;whiteSpace=wrap;html=1;direction=south;strokeWidth=6;fontColor=#000000;" parent="1" vertex="1">
          <mxGeometry x="175" y="720" width="40" height="80" as="geometry" />
        </mxCell>
        <mxCell id="oYlRctocb77fKKuBrY3P-26" value="" style="endArrow=none;html=1;rounded=0;entryX=1;entryY=0.5;entryDx=0;entryDy=0;exitX=0;exitY=0.5;exitDx=0;exitDy=0;strokeWidth=4;fontColor=#000000;" parent="1" source="oYlRctocb77fKKuBrY3P-20" target="oYlRctocb77fKKuBrY3P-19" edge="1">
          <mxGeometry width="50" height="50" relative="1" as="geometry">
            <mxPoint x="355" y="380" as="sourcePoint" />
            <mxPoint x="455" y="280" as="targetPoint" />
          </mxGeometry>
        </mxCell>
        <mxCell id="oYlRctocb77fKKuBrY3P-27" value="" style="endArrow=none;html=1;rounded=0;entryX=1;entryY=0.5;entryDx=0;entryDy=0;exitX=0;exitY=0.5;exitDx=0;exitDy=0;strokeWidth=4;fontColor=#000000;" parent="1" source="oYlRctocb77fKKuBrY3P-21" target="oYlRctocb77fKKuBrY3P-20" edge="1">
          <mxGeometry width="50" height="50" relative="1" as="geometry">
            <mxPoint x="215" y="460" as="sourcePoint" />
            <mxPoint x="215" y="260" as="targetPoint" />
          </mxGeometry>
        </mxCell>
        <mxCell id="oYlRctocb77fKKuBrY3P-35" value="" style="ellipse;whiteSpace=wrap;html=1;aspect=fixed;fillColor=#000000;strokeWidth=4;strokeColor=none;fontColor=#000000;" parent="1" vertex="1">
          <mxGeometry x="185" y="350" width="20" height="20" as="geometry" />
        </mxCell>
        <mxCell id="oYlRctocb77fKKuBrY3P-44" value="" style="ellipse;whiteSpace=wrap;html=1;aspect=fixed;fillColor=#000000;strokeWidth=4;strokeColor=none;fontColor=#000000;" parent="1" vertex="1">
          <mxGeometry x="185" y="590" width="20" height="20" as="geometry" />
        </mxCell>
        <mxCell id="oYlRctocb77fKKuBrY3P-49" value="&lt;font style=&quot;font-size: 50px;&quot;&gt;触&lt;br&gt;发&lt;br&gt;器&lt;/font&gt;" style="rounded=0;whiteSpace=wrap;html=1;direction=south;strokeWidth=6;fontColor=#000000;" parent="1" vertex="1">
          <mxGeometry x="475" y="235" width="120" height="485" as="geometry" />
        </mxCell>
        <mxCell id="oYlRctocb77fKKuBrY3P-50" value="&lt;font style=&quot;font-size: 50px;&quot;&gt;+&lt;/font&gt;" style="text;html=1;align=center;verticalAlign=middle;resizable=0;points=[];autosize=1;strokeColor=none;fillColor=none;strokeWidth=4;fontColor=#000000;" parent="1" vertex="1">
          <mxGeometry x="245" y="540" width="50" height="70" as="geometry" />
        </mxCell>
        <mxCell id="oYlRctocb77fKKuBrY3P-51" value="&lt;font style=&quot;font-size: 50px;&quot;&gt;-&lt;/font&gt;" style="text;html=1;align=center;verticalAlign=middle;resizable=0;points=[];autosize=1;strokeColor=none;fillColor=none;strokeWidth=4;fontColor=#000000;" parent="1" vertex="1">
          <mxGeometry x="250" y="660" width="40" height="70" as="geometry" />
        </mxCell>
        <mxCell id="oYlRctocb77fKKuBrY3P-52" value="" style="endArrow=none;html=1;rounded=0;entryX=0;entryY=0.5;entryDx=0;entryDy=0;strokeWidth=4;fontColor=#000000;exitX=0.5;exitY=1;exitDx=0;exitDy=0;" parent="1" source="-57o9uocHF-z8NXYsJxn-1" target="oYlRctocb77fKKuBrY3P-49" edge="1">
          <mxGeometry width="50" height="50" relative="1" as="geometry">
            <mxPoint x="535" y="100" as="sourcePoint" />
            <mxPoint x="415" y="380" as="targetPoint" />
          </mxGeometry>
        </mxCell>
        <mxCell id="oYlRctocb77fKKuBrY3P-53" value="" style="endArrow=none;html=1;rounded=0;entryX=0;entryY=0.5;entryDx=0;entryDy=0;strokeWidth=4;fontColor=#000000;" parent="1" source="9ELfS6WFHughq5BFfpC6-5" target="oYlRctocb77fKKuBrY3P-19" edge="1">
          <mxGeometry width="50" height="50" relative="1" as="geometry">
            <mxPoint x="195" y="80" as="sourcePoint" />
            <mxPoint x="415" y="380" as="targetPoint" />
          </mxGeometry>
        </mxCell>
        <mxCell id="oYlRctocb77fKKuBrY3P-54" value="" style="endArrow=none;html=1;rounded=0;strokeWidth=4;fontColor=#000000;strokeColor=#0000FF;exitX=0;exitY=0.5;exitDx=0;exitDy=0;entryX=0.176;entryY=-0.014;entryDx=0;entryDy=0;entryPerimeter=0;" parent="1" source="-57o9uocHF-z8NXYsJxn-11" target="oYlRctocb77fKKuBrY3P-49" edge="1">
          <mxGeometry width="50" height="50" relative="1" as="geometry">
            <mxPoint x="860" y="334.58" as="sourcePoint" />
            <mxPoint x="620" y="320" as="targetPoint" />
          </mxGeometry>
        </mxCell>
        <mxCell id="oYlRctocb77fKKuBrY3P-55" value="" style="endArrow=none;html=1;rounded=0;entryX=0.837;entryY=0;entryDx=0;entryDy=0;entryPerimeter=0;strokeWidth=4;fontColor=#000000;" parent="1" target="oYlRctocb77fKKuBrY3P-49" edge="1">
          <mxGeometry width="50" height="50" relative="1" as="geometry">
            <mxPoint x="680" y="641" as="sourcePoint" />
            <mxPoint x="605.0000000000001" y="635.0649999999999" as="targetPoint" />
          </mxGeometry>
        </mxCell>
        <mxCell id="oYlRctocb77fKKuBrY3P-56" value="" style="endArrow=none;html=1;rounded=0;strokeWidth=4;fontColor=#000000;" parent="1" edge="1">
          <mxGeometry width="50" height="50" relative="1" as="geometry">
            <mxPoint x="680" y="940" as="sourcePoint" />
            <mxPoint x="680" y="640" as="targetPoint" />
          </mxGeometry>
        </mxCell>
        <mxCell id="oYlRctocb77fKKuBrY3P-57" value="" style="endArrow=none;html=1;rounded=0;strokeWidth=4;entryX=1;entryY=0.5;entryDx=0;entryDy=0;fontColor=#000000;" parent="1" target="eyqNCUY_SEGoPxI6-TQl-1" edge="1">
          <mxGeometry width="50" height="50" relative="1" as="geometry">
            <mxPoint x="395" y="941" as="sourcePoint" />
            <mxPoint x="480" y="941" as="targetPoint" />
          </mxGeometry>
        </mxCell>
        <mxCell id="oYlRctocb77fKKuBrY3P-58" value="" style="endArrow=none;html=1;rounded=0;strokeWidth=6;fontColor=#000000;" parent="1" edge="1">
          <mxGeometry width="50" height="50" relative="1" as="geometry">
            <mxPoint x="395" y="981" as="sourcePoint" />
            <mxPoint x="395" y="901" as="targetPoint" />
          </mxGeometry>
        </mxCell>
        <mxCell id="oYlRctocb77fKKuBrY3P-59" value="" style="endArrow=none;html=1;rounded=0;strokeWidth=4;fontColor=#000000;" parent="1" edge="1">
          <mxGeometry width="50" height="50" relative="1" as="geometry">
            <mxPoint x="395" y="921" as="sourcePoint" />
            <mxPoint x="355" y="901" as="targetPoint" />
          </mxGeometry>
        </mxCell>
        <mxCell id="oYlRctocb77fKKuBrY3P-61" value="" style="endArrow=classic;html=1;rounded=0;strokeWidth=4;fontColor=#000000;" parent="1" edge="1">
          <mxGeometry width="50" height="50" relative="1" as="geometry">
            <mxPoint x="395" y="961" as="sourcePoint" />
            <mxPoint x="355" y="981" as="targetPoint" />
          </mxGeometry>
        </mxCell>
        <mxCell id="oYlRctocb77fKKuBrY3P-62" value="" style="endArrow=none;html=1;rounded=0;strokeWidth=4;fontColor=#000000;" parent="1" edge="1">
          <mxGeometry width="50" height="50" relative="1" as="geometry">
            <mxPoint x="355" y="902" as="sourcePoint" />
            <mxPoint x="355" y="882" as="targetPoint" />
          </mxGeometry>
        </mxCell>
        <mxCell id="oYlRctocb77fKKuBrY3P-63" value="" style="endArrow=none;html=1;rounded=0;strokeWidth=4;fontColor=#000000;entryX=0.5;entryY=0;entryDx=0;entryDy=0;" parent="1" target="-57o9uocHF-z8NXYsJxn-25" edge="1">
          <mxGeometry width="50" height="50" relative="1" as="geometry">
            <mxPoint x="355" y="981" as="sourcePoint" />
            <mxPoint x="355" y="1001" as="targetPoint" />
          </mxGeometry>
        </mxCell>
        <mxCell id="oYlRctocb77fKKuBrY3P-64" value="" style="endArrow=none;html=1;rounded=0;strokeWidth=4;fontColor=#000000;exitX=0;exitY=0.5;exitDx=0;exitDy=0;" parent="1" source="-57o9uocHF-z8NXYsJxn-25" edge="1">
          <mxGeometry width="50" height="50" relative="1" as="geometry">
            <mxPoint x="355" y="1001" as="sourcePoint" />
            <mxPoint x="10" y="1001" as="targetPoint" />
          </mxGeometry>
        </mxCell>
        <mxCell id="oYlRctocb77fKKuBrY3P-65" value="" style="endArrow=none;html=1;rounded=0;strokeWidth=4;fontColor=#000000;strokeColor=#000000;" parent="1" edge="1">
          <mxGeometry width="50" height="50" relative="1" as="geometry">
            <mxPoint x="356" y="881" as="sourcePoint" />
            <mxPoint x="-440" y="880" as="targetPoint" />
          </mxGeometry>
        </mxCell>
        <mxCell id="oYlRctocb77fKKuBrY3P-66" value="" style="endArrow=none;html=1;rounded=0;entryX=1;entryY=0.5;entryDx=0;entryDy=0;strokeWidth=4;fontColor=#000000;" parent="1" source="oYlRctocb77fKKuBrY3P-43" target="oYlRctocb77fKKuBrY3P-21" edge="1">
          <mxGeometry width="50" height="50" relative="1" as="geometry">
            <mxPoint x="195" y="1020" as="sourcePoint" />
            <mxPoint x="375" y="810" as="targetPoint" />
          </mxGeometry>
        </mxCell>
        <mxCell id="oYlRctocb77fKKuBrY3P-68" value="" style="endArrow=none;html=1;rounded=0;entryX=1;entryY=0.5;entryDx=0;entryDy=0;strokeWidth=4;fontColor=#000000;" parent="1" target="oYlRctocb77fKKuBrY3P-43" edge="1">
          <mxGeometry width="50" height="50" relative="1" as="geometry">
            <mxPoint x="195" y="1001" as="sourcePoint" />
            <mxPoint x="195" y="781" as="targetPoint" />
          </mxGeometry>
        </mxCell>
        <mxCell id="oYlRctocb77fKKuBrY3P-43" value="" style="ellipse;whiteSpace=wrap;html=1;aspect=fixed;fillColor=#000000;strokeWidth=4;strokeColor=none;fontColor=#000000;" parent="1" vertex="1">
          <mxGeometry x="185" y="991" width="20" height="20" as="geometry" />
        </mxCell>
        <mxCell id="oYlRctocb77fKKuBrY3P-69" value="&lt;font style=&quot;font-size: 50px;&quot;&gt;6&lt;/font&gt;" style="text;html=1;align=center;verticalAlign=middle;resizable=0;points=[];autosize=1;strokeColor=default;fillColor=none;rounded=1;fontStyle=1;strokeWidth=4;dashed=1;opacity=50;shadow=1;glass=1;dashPattern=1 1;fontColor=#000000;" parent="1" vertex="1">
          <mxGeometry x="-50" y="240" width="50" height="70" as="geometry" />
        </mxCell>
        <mxCell id="oYlRctocb77fKKuBrY3P-70" value="&lt;font style=&quot;font-size: 50px;&quot;&gt;&lt;b&gt;5&lt;/b&gt;&lt;/font&gt;" style="text;html=1;align=center;verticalAlign=middle;resizable=0;points=[];autosize=1;strokeColor=default;fillColor=none;strokeWidth=4;dashed=1;opacity=50;rounded=1;shadow=1;glass=1;dashPattern=1 1;fontColor=#000000;" parent="1" vertex="1">
          <mxGeometry x="105" y="370" width="50" height="70" as="geometry" />
        </mxCell>
        <mxCell id="oYlRctocb77fKKuBrY3P-71" value="&lt;font style=&quot;font-size: 50px;&quot;&gt;&lt;b&gt;2&lt;/b&gt;&lt;/font&gt;" style="text;html=1;align=center;verticalAlign=middle;resizable=0;points=[];autosize=1;strokeColor=default;fillColor=none;strokeWidth=4;dashed=1;opacity=50;rounded=1;shadow=1;glass=1;dashPattern=1 1;fontColor=#000000;" parent="1" vertex="1">
          <mxGeometry x="-50" y="590" width="50" height="70" as="geometry" />
        </mxCell>
        <mxCell id="oYlRctocb77fKKuBrY3P-72" value="&lt;font style=&quot;font-size: 50px;&quot;&gt;&lt;b&gt;7&lt;/b&gt;&lt;/font&gt;" style="text;html=1;align=center;verticalAlign=middle;resizable=0;points=[];autosize=1;strokeColor=default;fillColor=none;strokeWidth=4;dashed=1;opacity=50;rounded=1;shadow=1;glass=1;dashPattern=1 1;fontColor=#000000;" parent="1" vertex="1">
          <mxGeometry x="290" y="800" width="50" height="70" as="geometry" />
        </mxCell>
        <mxCell id="oYlRctocb77fKKuBrY3P-73" value="&lt;font style=&quot;font-size: 50px;&quot;&gt;&lt;b&gt;1&lt;/b&gt;&lt;/font&gt;" style="text;html=1;align=center;verticalAlign=middle;resizable=0;points=[];autosize=1;strokeColor=default;fillColor=none;strokeWidth=4;dashed=1;opacity=50;rounded=1;shadow=1;glass=1;dashPattern=1 1;fontColor=#000000;" parent="1" vertex="1">
          <mxGeometry x="290" y="921" width="50" height="70" as="geometry" />
        </mxCell>
        <mxCell id="oYlRctocb77fKKuBrY3P-74" value="&lt;font style=&quot;font-size: 50px;&quot;&gt;R&lt;sub&gt;t&lt;/sub&gt;&lt;/font&gt;" style="text;html=1;align=center;verticalAlign=middle;resizable=0;points=[];autosize=1;strokeColor=none;fillColor=none;strokeWidth=4;fontColor=#000000;" parent="1" vertex="1">
          <mxGeometry x="105" y="155" width="70" height="80" as="geometry" />
        </mxCell>
        <mxCell id="oYlRctocb77fKKuBrY3P-77" value="&lt;font style=&quot;font-size: 50px;&quot;&gt;R&lt;/font&gt;" style="text;html=1;align=center;verticalAlign=middle;resizable=0;points=[];autosize=1;strokeColor=none;fillColor=none;strokeWidth=4;fontColor=#000000;" parent="1" vertex="1">
          <mxGeometry x="405" y="238" width="60" height="70" as="geometry" />
        </mxCell>
        <mxCell id="oYlRctocb77fKKuBrY3P-78" value="&lt;span style=&quot;font-size: 50px;&quot;&gt;S&lt;/span&gt;" style="text;html=1;align=center;verticalAlign=middle;resizable=0;points=[];autosize=1;strokeColor=none;fillColor=none;strokeWidth=4;fontColor=#000000;" parent="1" vertex="1">
          <mxGeometry x="405" y="565" width="60" height="70" as="geometry" />
        </mxCell>
        <mxCell id="oYlRctocb77fKKuBrY3P-79" value="&lt;span style=&quot;font-size: 50px;&quot;&gt;Q&lt;/span&gt;" style="text;html=1;align=center;verticalAlign=middle;resizable=0;points=[];autosize=1;strokeColor=none;fillColor=none;strokeWidth=4;fontColor=#000000;" parent="1" vertex="1">
          <mxGeometry x="605" y="240" width="60" height="70" as="geometry" />
        </mxCell>
        <mxCell id="oYlRctocb77fKKuBrY3P-80" value="&lt;font style=&quot;font-size: 50px;&quot;&gt;Q&lt;/font&gt;" style="text;html=1;align=center;verticalAlign=middle;resizable=0;points=[];autosize=1;strokeColor=none;fillColor=none;strokeWidth=4;fontColor=#000000;" parent="1" vertex="1">
          <mxGeometry x="605" y="565" width="60" height="70" as="geometry" />
        </mxCell>
        <mxCell id="oYlRctocb77fKKuBrY3P-81" value="" style="endArrow=none;html=1;rounded=0;strokeWidth=4;fontColor=#000000;" parent="1" edge="1">
          <mxGeometry width="50" height="50" relative="1" as="geometry">
            <mxPoint x="655" y="570" as="sourcePoint" />
            <mxPoint x="615" y="570" as="targetPoint" />
          </mxGeometry>
        </mxCell>
        <mxCell id="oYlRctocb77fKKuBrY3P-82" value="&lt;span style=&quot;font-size: 50px;&quot;&gt;T&lt;/span&gt;" style="text;html=1;align=center;verticalAlign=middle;resizable=0;points=[];autosize=1;strokeColor=none;fillColor=none;strokeWidth=4;fontColor=#000000;" parent="1" vertex="1">
          <mxGeometry x="410" y="881" width="50" height="70" as="geometry" />
        </mxCell>
        <mxCell id="oYlRctocb77fKKuBrY3P-83" value="&lt;font style=&quot;font-size: 50px;&quot;&gt;8&lt;/font&gt;" style="text;html=1;align=center;verticalAlign=middle;resizable=0;points=[];autosize=1;strokeColor=default;fillColor=none;rounded=1;fontStyle=1;strokeWidth=4;dashed=1;opacity=50;shadow=1;glass=1;dashPattern=1 1;fontColor=#000000;" parent="1" vertex="1">
          <mxGeometry x="230" y="90" width="50" height="70" as="geometry" />
        </mxCell>
        <mxCell id="oYlRctocb77fKKuBrY3P-86" value="&lt;font style=&quot;font-size: 50px;&quot;&gt;4&lt;/font&gt;" style="text;html=1;align=center;verticalAlign=middle;resizable=0;points=[];autosize=1;strokeColor=default;fillColor=none;rounded=1;fontStyle=1;strokeWidth=4;dashed=1;opacity=50;shadow=1;glass=1;dashPattern=1 1;fontColor=#000000;" parent="1" vertex="1">
          <mxGeometry x="555" y="90" width="50" height="70" as="geometry" />
        </mxCell>
        <mxCell id="oYlRctocb77fKKuBrY3P-87" value="&lt;font style=&quot;font-size: 50px;&quot;&gt;3&lt;/font&gt;" style="text;html=1;align=center;verticalAlign=middle;resizable=0;points=[];autosize=1;strokeColor=default;fillColor=none;rounded=1;fontStyle=1;strokeWidth=4;dashed=1;opacity=50;shadow=1;glass=1;dashPattern=1 1;fontColor=#000000;" parent="1" vertex="1">
          <mxGeometry x="631" y="345" width="50" height="70" as="geometry" />
        </mxCell>
        <mxCell id="eyqNCUY_SEGoPxI6-TQl-1" value="" style="rounded=0;whiteSpace=wrap;html=1;direction=west;strokeWidth=6;fontColor=#000000;" parent="1" vertex="1">
          <mxGeometry x="505" y="921" width="80" height="40" as="geometry" />
        </mxCell>
        <mxCell id="eyqNCUY_SEGoPxI6-TQl-2" value="" style="endArrow=none;html=1;rounded=0;strokeWidth=4;exitX=0;exitY=0.5;exitDx=0;exitDy=0;fontColor=#000000;" parent="1" source="eyqNCUY_SEGoPxI6-TQl-1" edge="1">
          <mxGeometry width="50" height="50" relative="1" as="geometry">
            <mxPoint x="405" y="951" as="sourcePoint" />
            <mxPoint x="680" y="940" as="targetPoint" />
          </mxGeometry>
        </mxCell>
        <mxCell id="eyqNCUY_SEGoPxI6-TQl-3" value="&lt;span style=&quot;font-size: 50px;&quot;&gt;R&lt;sub&gt;p&lt;/sub&gt;&lt;/span&gt;" style="text;html=1;align=center;verticalAlign=middle;resizable=0;points=[];autosize=1;strokeColor=none;fillColor=none;strokeWidth=4;fontColor=#000000;" parent="1" vertex="1">
          <mxGeometry x="505" y="835" width="80" height="80" as="geometry" />
        </mxCell>
        <mxCell id="9ELfS6WFHughq5BFfpC6-4" value="" style="endArrow=none;html=1;rounded=0;strokeWidth=4;strokeColor=#000000;fontColor=#000000;exitX=0;exitY=0.5;exitDx=0;exitDy=0;" parent="1" source="-57o9uocHF-z8NXYsJxn-1" target="9ELfS6WFHughq5BFfpC6-5" edge="1">
          <mxGeometry width="50" height="50" relative="1" as="geometry">
            <mxPoint x="520" y="60" as="sourcePoint" />
            <mxPoint x="12" y="80" as="targetPoint" />
          </mxGeometry>
        </mxCell>
        <mxCell id="9ELfS6WFHughq5BFfpC6-6" value="" style="endArrow=none;html=1;rounded=0;entryX=0;entryY=0.5;entryDx=0;entryDy=0;strokeWidth=4;fontColor=#000000;" parent="1" target="9ELfS6WFHughq5BFfpC6-5" edge="1">
          <mxGeometry width="50" height="50" relative="1" as="geometry">
            <mxPoint x="195" y="80" as="sourcePoint" />
            <mxPoint x="195" y="160" as="targetPoint" />
          </mxGeometry>
        </mxCell>
        <mxCell id="9ELfS6WFHughq5BFfpC6-5" value="" style="ellipse;whiteSpace=wrap;html=1;aspect=fixed;fillColor=#000000;strokeWidth=4;strokeColor=none;fontColor=#000000;" parent="1" vertex="1">
          <mxGeometry x="185" y="70" width="20" height="20" as="geometry" />
        </mxCell>
        <mxCell id="9ELfS6WFHughq5BFfpC6-11" value="" style="ellipse;whiteSpace=wrap;html=1;aspect=fixed;fillColor=#000000;strokeWidth=4;strokeColor=none;fontColor=#000000;" parent="1" vertex="1">
          <mxGeometry x="80" y="991" width="20" height="20" as="geometry" />
        </mxCell>
        <mxCell id="9ELfS6WFHughq5BFfpC6-14" value="" style="endArrow=none;html=1;rounded=0;strokeWidth=4;strokeColor=#000000;fontColor=#000000;" parent="1" edge="1">
          <mxGeometry width="50" height="50" relative="1" as="geometry">
            <mxPoint x="12" y="678" as="sourcePoint" />
            <mxPoint x="12" y="278" as="targetPoint" />
          </mxGeometry>
        </mxCell>
        <mxCell id="9ELfS6WFHughq5BFfpC6-19" value="" style="endArrow=none;html=1;rounded=0;exitX=0;exitY=0.75;exitDx=0;exitDy=0;strokeWidth=4;fontColor=#000000;" parent="1" source="oYlRctocb77fKKuBrY3P-13" target="9ELfS6WFHughq5BFfpC6-15" edge="1">
          <mxGeometry width="50" height="50" relative="1" as="geometry">
            <mxPoint x="295" y="680" as="sourcePoint" />
            <mxPoint y="680" as="targetPoint" />
          </mxGeometry>
        </mxCell>
        <mxCell id="9ELfS6WFHughq5BFfpC6-15" value="" style="ellipse;whiteSpace=wrap;html=1;aspect=fixed;fillColor=#000000;strokeWidth=4;strokeColor=#000000;fontColor=#000000;" parent="1" vertex="1">
          <mxGeometry x="2" y="670" width="20" height="20" as="geometry" />
        </mxCell>
        <mxCell id="9ELfS6WFHughq5BFfpC6-20" value="" style="endArrow=none;html=1;rounded=0;strokeWidth=4;strokeColor=#000000;fontColor=#000000;" parent="1" edge="1">
          <mxGeometry width="50" height="50" relative="1" as="geometry">
            <mxPoint x="90" y="930" as="sourcePoint" />
            <mxPoint x="90" y="359" as="targetPoint" />
          </mxGeometry>
        </mxCell>
        <mxCell id="9ELfS6WFHughq5BFfpC6-21" value="" style="endArrow=none;html=1;rounded=0;strokeWidth=4;strokeColor=#000000;fontColor=#000000;" parent="1" edge="1">
          <mxGeometry width="50" height="50" relative="1" as="geometry">
            <mxPoint x="110" y="928" as="sourcePoint" />
            <mxPoint x="70" y="928" as="targetPoint" />
          </mxGeometry>
        </mxCell>
        <mxCell id="9ELfS6WFHughq5BFfpC6-22" value="" style="endArrow=none;html=1;rounded=0;strokeWidth=4;strokeColor=#000000;fontColor=#000000;" parent="1" edge="1">
          <mxGeometry width="50" height="50" relative="1" as="geometry">
            <mxPoint x="110" y="948" as="sourcePoint" />
            <mxPoint x="70" y="948" as="targetPoint" />
          </mxGeometry>
        </mxCell>
        <mxCell id="9ELfS6WFHughq5BFfpC6-23" value="" style="endArrow=none;html=1;rounded=0;strokeWidth=4;strokeColor=#000000;fontColor=#000000;" parent="1" edge="1">
          <mxGeometry width="50" height="50" relative="1" as="geometry">
            <mxPoint x="90" y="1000" as="sourcePoint" />
            <mxPoint x="90" y="950" as="targetPoint" />
          </mxGeometry>
        </mxCell>
        <mxCell id="9ELfS6WFHughq5BFfpC6-26" value="&lt;font style=&quot;font-size: 50px;&quot;&gt;V&lt;sub&gt;H&lt;/sub&gt;&lt;/font&gt;" style="text;html=1;align=center;verticalAlign=middle;resizable=0;points=[];autosize=1;strokeColor=none;fillColor=none;fontColor=#000000;" parent="1" vertex="1">
          <mxGeometry x="105" y="290" width="90" height="80" as="geometry" />
        </mxCell>
        <mxCell id="9ELfS6WFHughq5BFfpC6-28" value="&lt;font style=&quot;font-size: 50px;&quot;&gt;V&lt;sub&gt;L&lt;/sub&gt;&lt;/font&gt;" style="text;html=1;align=center;verticalAlign=middle;resizable=0;points=[];autosize=1;strokeColor=none;fillColor=none;fontColor=#000000;" parent="1" vertex="1">
          <mxGeometry x="110" y="565" width="80" height="80" as="geometry" />
        </mxCell>
        <mxCell id="9ELfS6WFHughq5BFfpC6-157" value="" style="endArrow=none;html=1;rounded=0;strokeWidth=4;strokeColor=#000000;fontColor=#000000;" parent="1" edge="1">
          <mxGeometry width="50" height="50" relative="1" as="geometry">
            <mxPoint x="165" y="1030" as="sourcePoint" />
            <mxPoint x="225" y="1030" as="targetPoint" />
          </mxGeometry>
        </mxCell>
        <mxCell id="9ELfS6WFHughq5BFfpC6-158" value="" style="endArrow=none;html=1;rounded=0;strokeWidth=4;strokeColor=#000000;fontColor=#000000;" parent="1" edge="1">
          <mxGeometry width="50" height="50" relative="1" as="geometry">
            <mxPoint x="220" y="1039" as="sourcePoint" />
            <mxPoint x="170" y="1039" as="targetPoint" />
          </mxGeometry>
        </mxCell>
        <mxCell id="9ELfS6WFHughq5BFfpC6-159" value="" style="endArrow=none;html=1;rounded=0;strokeWidth=4;strokeColor=#000000;fontColor=#000000;" parent="1" edge="1">
          <mxGeometry width="50" height="50" relative="1" as="geometry">
            <mxPoint x="210" y="1049" as="sourcePoint" />
            <mxPoint x="180" y="1049" as="targetPoint" />
          </mxGeometry>
        </mxCell>
        <mxCell id="9ELfS6WFHughq5BFfpC6-160" value="" style="endArrow=none;html=1;rounded=0;strokeWidth=4;strokeColor=#000000;entryX=0.5;entryY=1;entryDx=0;entryDy=0;fontColor=#000000;" parent="1" target="oYlRctocb77fKKuBrY3P-43" edge="1">
          <mxGeometry width="50" height="50" relative="1" as="geometry">
            <mxPoint x="195" y="1032" as="sourcePoint" />
            <mxPoint x="230" y="1020" as="targetPoint" />
          </mxGeometry>
        </mxCell>
        <mxCell id="9ELfS6WFHughq5BFfpC6-161" value="&lt;font&gt;&lt;span style=&quot;font-size: 50px;&quot;&gt;GND&lt;/span&gt;&lt;/font&gt;" style="text;html=1;align=center;verticalAlign=middle;resizable=0;points=[];autosize=1;strokeColor=none;fillColor=none;fontColor=#000000;" parent="1" vertex="1">
          <mxGeometry x="130" y="1050" width="130" height="70" as="geometry" />
        </mxCell>
        <mxCell id="9ELfS6WFHughq5BFfpC6-163" value="" style="endArrow=none;html=1;rounded=0;strokeWidth=4;strokeColor=#000000;exitX=0.5;exitY=0;exitDx=0;exitDy=0;fontColor=#000000;" parent="1" source="9ELfS6WFHughq5BFfpC6-5" edge="1">
          <mxGeometry width="50" height="50" relative="1" as="geometry">
            <mxPoint x="10" y="470" as="sourcePoint" />
            <mxPoint x="195" y="50" as="targetPoint" />
          </mxGeometry>
        </mxCell>
        <mxCell id="9ELfS6WFHughq5BFfpC6-165" value="" style="endArrow=none;html=1;rounded=0;strokeWidth=4;strokeColor=#000000;fontColor=#000000;" parent="1" edge="1">
          <mxGeometry width="50" height="50" relative="1" as="geometry">
            <mxPoint x="220" y="50" as="sourcePoint" />
            <mxPoint x="170" y="50" as="targetPoint" />
          </mxGeometry>
        </mxCell>
        <mxCell id="9ELfS6WFHughq5BFfpC6-166" value="&lt;font style=&quot;font-size: 50px;&quot;&gt;V&lt;sub&gt;CC&lt;/sub&gt;&lt;/font&gt;" style="text;html=1;align=center;verticalAlign=middle;resizable=0;points=[];autosize=1;strokeColor=none;fillColor=none;fontColor=#000000;" parent="1" vertex="1">
          <mxGeometry x="42" width="120" height="80" as="geometry" />
        </mxCell>
        <mxCell id="rsWcSZFI2ZlMxmA-CvCg-1" value="" style="endArrow=none;html=1;rounded=0;strokeWidth=4;strokeColor=#000000;" parent="1" edge="1">
          <mxGeometry width="50" height="50" relative="1" as="geometry">
            <mxPoint x="11.170000000000002" y="810" as="sourcePoint" />
            <mxPoint x="12" y="1000" as="targetPoint" />
          </mxGeometry>
        </mxCell>
        <mxCell id="rsWcSZFI2ZlMxmA-CvCg-2" value="" style="endArrow=none;html=1;rounded=0;strokeWidth=4;strokeColor=#000000;entryX=0.5;entryY=1;entryDx=0;entryDy=0;" parent="1" target="9ELfS6WFHughq5BFfpC6-15" edge="1">
          <mxGeometry width="50" height="50" relative="1" as="geometry">
            <mxPoint x="12" y="790.5152994791666" as="sourcePoint" />
            <mxPoint x="30" y="700" as="targetPoint" />
          </mxGeometry>
        </mxCell>
        <mxCell id="rsWcSZFI2ZlMxmA-CvCg-3" value="" style="group;strokeColor=#FFFFFF;container=0;" parent="1" vertex="1" connectable="0">
          <mxGeometry x="-18" y="789" width="60" height="22" as="geometry" />
        </mxCell>
        <mxCell id="rsWcSZFI2ZlMxmA-CvCg-6" value="" style="rounded=0;whiteSpace=wrap;html=1;direction=south;strokeWidth=6;strokeColor=#000000;" parent="1" vertex="1">
          <mxGeometry x="-460" y="240" width="40" height="80" as="geometry" />
        </mxCell>
        <mxCell id="rsWcSZFI2ZlMxmA-CvCg-7" value="" style="endArrow=none;html=1;rounded=0;strokeWidth=4;entryX=0;entryY=0.5;entryDx=0;entryDy=0;strokeColor=#000000;exitX=0;exitY=0.5;exitDx=0;exitDy=0;" parent="1" source="9zgsoIFImKlDmgQNj-1o-35" target="rsWcSZFI2ZlMxmA-CvCg-6" edge="1">
          <mxGeometry width="50" height="50" relative="1" as="geometry">
            <mxPoint x="-440" y="80" as="sourcePoint" />
            <mxPoint x="-440" y="450" as="targetPoint" />
            <Array as="points">
              <mxPoint x="-440" y="80" />
            </Array>
          </mxGeometry>
        </mxCell>
        <mxCell id="rsWcSZFI2ZlMxmA-CvCg-9" value="" style="endArrow=none;html=1;rounded=0;strokeWidth=4;strokeColor=#000000;entryX=0;entryY=0.5;entryDx=0;entryDy=0;exitX=1;exitY=0.5;exitDx=0;exitDy=0;" parent="1" source="9zgsoIFImKlDmgQNj-1o-35" target="9ELfS6WFHughq5BFfpC6-5" edge="1">
          <mxGeometry width="50" height="50" relative="1" as="geometry">
            <mxPoint x="-242" y="79.47" as="sourcePoint" />
            <mxPoint x="163" y="79.47" as="targetPoint" />
          </mxGeometry>
        </mxCell>
        <mxCell id="rsWcSZFI2ZlMxmA-CvCg-10" value="" style="endArrow=none;html=1;rounded=0;strokeWidth=4;strokeColor=#000000;entryX=0.5;entryY=1;entryDx=0;entryDy=0;" parent="1" edge="1">
          <mxGeometry width="50" height="50" relative="1" as="geometry">
            <mxPoint x="-440.59000000000003" y="881" as="sourcePoint" />
            <mxPoint x="-440.59000000000003" y="690" as="targetPoint" />
            <Array as="points">
              <mxPoint x="-440.59000000000003" y="881" />
            </Array>
          </mxGeometry>
        </mxCell>
        <mxCell id="rsWcSZFI2ZlMxmA-CvCg-11" value="" style="endArrow=none;html=1;rounded=0;strokeWidth=4;strokeColor=#000000;exitX=0.5;exitY=0;exitDx=0;exitDy=0;entryX=0.5;entryY=1;entryDx=0;entryDy=0;" parent="1" source="rsWcSZFI2ZlMxmA-CvCg-12" target="9zgsoIFImKlDmgQNj-1o-30" edge="1">
          <mxGeometry width="50" height="50" relative="1" as="geometry">
            <mxPoint x="-178" y="800.5152994791666" as="sourcePoint" />
            <mxPoint x="-440" y="490" as="targetPoint" />
          </mxGeometry>
        </mxCell>
        <mxCell id="rsWcSZFI2ZlMxmA-CvCg-12" value="" style="ellipse;whiteSpace=wrap;html=1;aspect=fixed;fillColor=#000000;strokeWidth=4;strokeColor=#000000;fontColor=#000000;" parent="1" vertex="1">
          <mxGeometry x="-450" y="670" width="20" height="20" as="geometry" />
        </mxCell>
        <mxCell id="rsWcSZFI2ZlMxmA-CvCg-13" value="" style="rounded=0;whiteSpace=wrap;html=1;direction=south;strokeWidth=6;rotation=90;strokeColor=#000000;" parent="1" vertex="1">
          <mxGeometry x="-177" y="640" width="40" height="80" as="geometry" />
        </mxCell>
        <mxCell id="rsWcSZFI2ZlMxmA-CvCg-14" value="" style="endArrow=none;html=1;rounded=0;strokeWidth=4;entryX=1;entryY=0.5;entryDx=0;entryDy=0;strokeColor=#000000;exitX=0;exitY=0.5;exitDx=0;exitDy=0;" parent="1" source="9zgsoIFImKlDmgQNj-1o-32" target="rsWcSZFI2ZlMxmA-CvCg-12" edge="1">
          <mxGeometry width="50" height="50" relative="1" as="geometry">
            <mxPoint x="-280" y="680" as="sourcePoint" />
            <mxPoint x="-400" y="710" as="targetPoint" />
          </mxGeometry>
        </mxCell>
        <mxCell id="rsWcSZFI2ZlMxmA-CvCg-15" value="&lt;font style=&quot;font-size: 50px;&quot;&gt;R&lt;sub&gt;t&lt;/sub&gt;&lt;/font&gt;" style="text;html=1;align=center;verticalAlign=middle;resizable=0;points=[];autosize=1;strokeColor=none;fillColor=none;strokeWidth=4;fontColor=#000000;" parent="1" vertex="1">
          <mxGeometry x="105" y="720" width="70" height="80" as="geometry" />
        </mxCell>
        <mxCell id="rsWcSZFI2ZlMxmA-CvCg-16" value="&lt;font style=&quot;font-size: 50px;&quot;&gt;R&lt;sub&gt;t&lt;/sub&gt;&lt;/font&gt;" style="text;html=1;align=center;verticalAlign=middle;resizable=0;points=[];autosize=1;strokeColor=none;fillColor=none;strokeWidth=4;fontColor=#000000;" parent="1" vertex="1">
          <mxGeometry x="105" y="440" width="70" height="80" as="geometry" />
        </mxCell>
        <mxCell id="rsWcSZFI2ZlMxmA-CvCg-17" value="&lt;font style=&quot;font-size: 50px;&quot;&gt;C&lt;sub&gt;2&lt;/sub&gt;&lt;/font&gt;&lt;div&gt;&lt;font style=&quot;font-size: 50px;&quot;&gt;103&lt;/font&gt;&lt;/div&gt;" style="text;html=1;align=center;verticalAlign=middle;resizable=0;points=[];autosize=1;strokeColor=none;fillColor=none;strokeWidth=4;fontColor=#000000;" parent="1" vertex="1">
          <mxGeometry x="85" y="871" width="110" height="140" as="geometry" />
        </mxCell>
        <mxCell id="rsWcSZFI2ZlMxmA-CvCg-18" value="&lt;font style=&quot;font-size: 50px;&quot;&gt;C&lt;sub&gt;1&lt;/sub&gt;&lt;/font&gt;&lt;div&gt;&lt;font style=&quot;font-size: 50px;&quot;&gt;100uF&lt;/font&gt;&lt;/div&gt;" style="text;html=1;align=center;verticalAlign=middle;resizable=0;points=[];autosize=1;strokeColor=none;fillColor=none;strokeWidth=4;fontColor=#000000;" parent="1" vertex="1">
          <mxGeometry x="-148" y="750" width="170" height="140" as="geometry" />
        </mxCell>
        <mxCell id="rsWcSZFI2ZlMxmA-CvCg-20" value="&lt;font style=&quot;font-size: 50px;&quot;&gt;R&lt;sub&gt;p1&lt;/sub&gt;&lt;/font&gt;&lt;div&gt;&lt;span style=&quot;background-color: transparent; color: light-dark(rgb(0, 0, 0), rgb(237, 237, 237)); font-size: 50px;&quot;&gt;10kΩ&lt;/span&gt;&lt;/div&gt;" style="text;html=1;align=center;verticalAlign=middle;resizable=0;points=[];autosize=1;strokeColor=none;fillColor=none;strokeWidth=4;fontColor=#000000;" parent="1" vertex="1">
          <mxGeometry x="-272" y="682" width="140" height="140" as="geometry" />
        </mxCell>
        <mxCell id="BHB_RNbIRPm3-JZHGC25-81" value="&lt;font style=&quot;font-size: 50px;&quot;&gt;V&lt;sub&gt;i&lt;/sub&gt;&lt;/font&gt;" style="text;html=1;align=center;verticalAlign=middle;resizable=0;points=[];autosize=1;strokeColor=none;fillColor=none;strokeWidth=4;fontColor=#000000;" parent="1" vertex="1">
          <mxGeometry x="-50" y="682" width="61" height="81" as="geometry" />
        </mxCell>
        <mxCell id="BHB_RNbIRPm3-JZHGC25-181" value="&lt;font style=&quot;font-size: 50px;&quot;&gt;V&lt;sub&gt;o&lt;/sub&gt;&lt;/font&gt;" style="text;html=1;align=center;verticalAlign=middle;resizable=0;points=[];autosize=1;strokeColor=none;fillColor=none;strokeWidth=4;fontColor=#000000;" parent="1" vertex="1">
          <mxGeometry x="690" y="319.5" width="75" height="81" as="geometry" />
        </mxCell>
        <mxCell id="rsWcSZFI2ZlMxmA-CvCg-4" value="" style="endArrow=none;html=1;rounded=0;strokeWidth=4;strokeColor=#000000;" parent="1" edge="1">
          <mxGeometry width="50" height="50" relative="1" as="geometry">
            <mxPoint x="-18" y="789" as="sourcePoint" />
            <mxPoint x="42" y="789" as="targetPoint" />
          </mxGeometry>
        </mxCell>
        <mxCell id="rsWcSZFI2ZlMxmA-CvCg-5" value="" style="endArrow=none;html=1;rounded=0;strokeWidth=4;strokeColor=#000000;" parent="1" edge="1">
          <mxGeometry width="50" height="50" relative="1" as="geometry">
            <mxPoint x="-18" y="810" as="sourcePoint" />
            <mxPoint x="42" y="810" as="targetPoint" />
          </mxGeometry>
        </mxCell>
        <mxCell id="-57o9uocHF-z8NXYsJxn-1" value="" style="ellipse;whiteSpace=wrap;html=1;aspect=fixed;fillColor=#0000FF;strokeWidth=4;strokeColor=none;fontColor=#000000;" parent="1" vertex="1">
          <mxGeometry x="525" y="70" width="20" height="20" as="geometry" />
        </mxCell>
        <mxCell id="-57o9uocHF-z8NXYsJxn-7" value="" style="endArrow=none;html=1;rounded=0;strokeWidth=4;strokeColor=#0000FF;" parent="1" edge="1">
          <mxGeometry width="50" height="50" relative="1" as="geometry">
            <mxPoint x="920" y="282" as="sourcePoint" />
            <mxPoint x="840" y="282" as="targetPoint" />
            <Array as="points" />
          </mxGeometry>
        </mxCell>
        <mxCell id="-57o9uocHF-z8NXYsJxn-8" value="" style="endArrow=classic;html=1;rounded=0;strokeWidth=4;strokeColor=#FF0000;" parent="1" edge="1">
          <mxGeometry width="50" height="50" relative="1" as="geometry">
            <mxPoint x="936" y="249.5" as="sourcePoint" />
            <mxPoint x="980" y="230" as="targetPoint" />
          </mxGeometry>
        </mxCell>
        <mxCell id="-57o9uocHF-z8NXYsJxn-9" value="" style="endArrow=classic;html=1;rounded=0;strokeWidth=4;strokeColor=#FF0000;" parent="1" edge="1">
          <mxGeometry width="50" height="50" relative="1" as="geometry">
            <mxPoint x="936" y="269.5" as="sourcePoint" />
            <mxPoint x="980" y="250" as="targetPoint" />
          </mxGeometry>
        </mxCell>
        <mxCell id="-57o9uocHF-z8NXYsJxn-10" value="" style="verticalLabelPosition=bottom;verticalAlign=top;html=1;shape=mxgraph.basic.acute_triangle;dx=0.5;rotation=90;strokeWidth=4;fillColor=#FF0000;direction=south;strokeColor=#0000FF;" parent="1" vertex="1">
          <mxGeometry x="853.5" y="215" width="53" height="75" as="geometry" />
        </mxCell>
        <mxCell id="-57o9uocHF-z8NXYsJxn-2" value="" style="endArrow=none;html=1;rounded=0;strokeWidth=4;strokeColor=#0000FF;fontColor=#000000;entryX=1;entryY=0.5;entryDx=0;entryDy=0;exitX=0;exitY=0.5;exitDx=0;exitDy=0;" parent="1" source="-57o9uocHF-z8NXYsJxn-18" target="-57o9uocHF-z8NXYsJxn-1" edge="1">
          <mxGeometry width="50" height="50" relative="1" as="geometry">
            <mxPoint x="920" y="100" as="sourcePoint" />
            <mxPoint x="570" y="80" as="targetPoint" />
            <Array as="points">
              <mxPoint x="880" y="80" />
            </Array>
          </mxGeometry>
        </mxCell>
        <mxCell id="-57o9uocHF-z8NXYsJxn-11" value="" style="ellipse;whiteSpace=wrap;html=1;aspect=fixed;fillColor=#0000FF;strokeWidth=4;strokeColor=none;fontColor=#000000;" parent="1" vertex="1">
          <mxGeometry x="870" y="310" width="20" height="20" as="geometry" />
        </mxCell>
        <mxCell id="-57o9uocHF-z8NXYsJxn-15" value="" style="endArrow=none;html=1;rounded=0;strokeWidth=4;fontColor=#000000;strokeColor=#0000FF;entryX=0.5;entryY=0;entryDx=0;entryDy=0;exitX=0;exitY=0;exitDx=37.5;exitDy=0;exitPerimeter=0;" parent="1" source="-57o9uocHF-z8NXYsJxn-10" target="-57o9uocHF-z8NXYsJxn-11" edge="1">
          <mxGeometry width="50" height="50" relative="1" as="geometry">
            <mxPoint x="900" y="300" as="sourcePoint" />
            <mxPoint x="607" y="330" as="targetPoint" />
          </mxGeometry>
        </mxCell>
        <mxCell id="-57o9uocHF-z8NXYsJxn-16" value="" style="endArrow=none;html=1;rounded=0;strokeWidth=4;fontColor=#000000;strokeColor=#0000FF;exitX=0.5;exitY=1;exitDx=0;exitDy=0;entryX=0;entryY=0.5;entryDx=0;entryDy=0;" parent="1" source="-57o9uocHF-z8NXYsJxn-11" target="-57o9uocHF-z8NXYsJxn-21" edge="1">
          <mxGeometry width="50" height="50" relative="1" as="geometry">
            <mxPoint x="890" y="292" as="sourcePoint" />
            <mxPoint x="880" y="390" as="targetPoint" />
          </mxGeometry>
        </mxCell>
        <mxCell id="-57o9uocHF-z8NXYsJxn-18" value="" style="rounded=0;whiteSpace=wrap;html=1;direction=south;strokeWidth=6;strokeColor=#0000FF;" parent="1" vertex="1">
          <mxGeometry x="860" y="100" width="40" height="80" as="geometry" />
        </mxCell>
        <mxCell id="-57o9uocHF-z8NXYsJxn-19" value="&lt;font style=&quot;font-size: 50px;&quot;&gt;R&lt;sub&gt;3&lt;/sub&gt;&lt;/font&gt;&lt;div&gt;&lt;font style=&quot;font-size: 50px;&quot;&gt;1kΩ&lt;/font&gt;&lt;/div&gt;" style="text;html=1;align=center;verticalAlign=middle;resizable=0;points=[];autosize=1;strokeColor=none;fillColor=none;strokeWidth=4;fontColor=#0000FF;" parent="1" vertex="1">
          <mxGeometry x="743.5" y="75" width="110" height="140" as="geometry" />
        </mxCell>
        <mxCell id="-57o9uocHF-z8NXYsJxn-20" value="" style="endArrow=none;html=1;rounded=0;strokeWidth=4;fontColor=#000000;strokeColor=#0000FF;exitX=1;exitY=0.5;exitDx=0;exitDy=0;entryX=0;entryY=0;entryDx=37.5;entryDy=0;entryPerimeter=0;" parent="1" source="-57o9uocHF-z8NXYsJxn-18" target="-57o9uocHF-z8NXYsJxn-10" edge="1">
          <mxGeometry width="50" height="50" relative="1" as="geometry">
            <mxPoint x="890" y="292" as="sourcePoint" />
            <mxPoint x="890" y="320" as="targetPoint" />
          </mxGeometry>
        </mxCell>
        <mxCell id="-57o9uocHF-z8NXYsJxn-21" value="" style="rounded=0;whiteSpace=wrap;html=1;direction=south;strokeWidth=6;strokeColor=#0000FF;" parent="1" vertex="1">
          <mxGeometry x="860" y="540" width="40" height="80" as="geometry" />
        </mxCell>
        <mxCell id="-57o9uocHF-z8NXYsJxn-22" value="&lt;font style=&quot;font-size: 50px;&quot;&gt;R&lt;sub&gt;4&lt;/sub&gt;&lt;/font&gt;&lt;div&gt;&lt;font style=&quot;font-size: 50px;&quot;&gt;1kΩ&lt;/font&gt;&lt;/div&gt;" style="text;html=1;align=center;verticalAlign=middle;resizable=0;points=[];autosize=1;strokeColor=none;fillColor=none;strokeWidth=4;fontColor=#0000FF;" parent="1" vertex="1">
          <mxGeometry x="755" y="520" width="110" height="140" as="geometry" />
        </mxCell>
        <mxCell id="-57o9uocHF-z8NXYsJxn-23" value="" style="endArrow=none;html=1;rounded=0;strokeWidth=4;fontColor=#000000;strokeColor=#0000FF;exitX=0;exitY=0;exitDx=37.5;exitDy=0;exitPerimeter=0;" parent="1" source="-57o9uocHF-z8NXYsJxn-29" edge="1">
          <mxGeometry width="50" height="50" relative="1" as="geometry">
            <mxPoint x="940" y="870" as="sourcePoint" />
            <mxPoint x="880" y="1000" as="targetPoint" />
          </mxGeometry>
        </mxCell>
        <mxCell id="-57o9uocHF-z8NXYsJxn-24" value="" style="endArrow=none;html=1;rounded=0;strokeWidth=4;fontColor=#000000;strokeColor=#0000FF;exitX=1;exitY=0.5;exitDx=0;exitDy=0;" parent="1" source="-57o9uocHF-z8NXYsJxn-25" edge="1">
          <mxGeometry width="50" height="50" relative="1" as="geometry">
            <mxPoint x="390" y="1001" as="sourcePoint" />
            <mxPoint x="882" y="1001" as="targetPoint" />
          </mxGeometry>
        </mxCell>
        <mxCell id="-57o9uocHF-z8NXYsJxn-25" value="" style="ellipse;whiteSpace=wrap;html=1;aspect=fixed;fillColor=#0000FF;strokeWidth=4;strokeColor=none;fontColor=#000000;" parent="1" vertex="1">
          <mxGeometry x="345" y="991" width="20" height="20" as="geometry" />
        </mxCell>
        <mxCell id="-57o9uocHF-z8NXYsJxn-26" value="" style="endArrow=none;html=1;rounded=0;strokeWidth=4;strokeColor=#0000FF;" parent="1" edge="1">
          <mxGeometry width="50" height="50" relative="1" as="geometry">
            <mxPoint x="920" y="817" as="sourcePoint" />
            <mxPoint x="840" y="817" as="targetPoint" />
            <Array as="points" />
          </mxGeometry>
        </mxCell>
        <mxCell id="-57o9uocHF-z8NXYsJxn-27" value="" style="endArrow=classic;html=1;rounded=0;strokeWidth=4;strokeColor=#00FF00;" parent="1" edge="1">
          <mxGeometry width="50" height="50" relative="1" as="geometry">
            <mxPoint x="936" y="784.5" as="sourcePoint" />
            <mxPoint x="980" y="765" as="targetPoint" />
          </mxGeometry>
        </mxCell>
        <mxCell id="-57o9uocHF-z8NXYsJxn-28" value="" style="endArrow=classic;html=1;rounded=0;strokeWidth=4;strokeColor=#00FF00;" parent="1" edge="1">
          <mxGeometry width="50" height="50" relative="1" as="geometry">
            <mxPoint x="936" y="804.5" as="sourcePoint" />
            <mxPoint x="980" y="785" as="targetPoint" />
          </mxGeometry>
        </mxCell>
        <mxCell id="-57o9uocHF-z8NXYsJxn-29" value="" style="verticalLabelPosition=bottom;verticalAlign=top;html=1;shape=mxgraph.basic.acute_triangle;dx=0.5;rotation=90;strokeWidth=4;fillColor=#00FF00;direction=south;strokeColor=#0000FF;" parent="1" vertex="1">
          <mxGeometry x="853.5" y="750" width="53" height="75" as="geometry" />
        </mxCell>
        <mxCell id="-57o9uocHF-z8NXYsJxn-17" value="" style="endArrow=none;html=1;rounded=0;strokeWidth=4;fontColor=#000000;strokeColor=#0000FF;exitX=1;exitY=0.5;exitDx=0;exitDy=0;entryX=0;entryY=0;entryDx=37.5;entryDy=0;entryPerimeter=0;" parent="1" source="-57o9uocHF-z8NXYsJxn-21" target="-57o9uocHF-z8NXYsJxn-29" edge="1">
          <mxGeometry width="50" height="50" relative="1" as="geometry">
            <mxPoint x="980" y="360" as="sourcePoint" />
            <mxPoint x="880" y="760" as="targetPoint" />
          </mxGeometry>
        </mxCell>
        <mxCell id="-57o9uocHF-z8NXYsJxn-31" value="&lt;font style=&quot;font-size: 50px;&quot;&gt;LED&lt;sub&gt;1&lt;/sub&gt;&lt;/font&gt;" style="text;html=1;align=center;verticalAlign=middle;resizable=0;points=[];autosize=1;strokeColor=none;fillColor=none;strokeWidth=4;fontColor=#0000FF;" parent="1" vertex="1">
          <mxGeometry x="710" y="215" width="140" height="80" as="geometry" />
        </mxCell>
        <mxCell id="-57o9uocHF-z8NXYsJxn-32" value="&lt;font style=&quot;font-size: 50px;&quot;&gt;LED&lt;sub&gt;2&lt;/sub&gt;&lt;/font&gt;" style="text;html=1;align=center;verticalAlign=middle;resizable=0;points=[];autosize=1;strokeColor=none;fillColor=none;strokeWidth=4;fontColor=#0000FF;" parent="1" vertex="1">
          <mxGeometry x="710" y="745" width="140" height="80" as="geometry" />
        </mxCell>
        <mxCell id="9zgsoIFImKlDmgQNj-1o-1" value="&lt;font style=&quot;font-size: 50px;&quot;&gt;R&lt;sub&gt;1&lt;/sub&gt;&lt;/font&gt;&lt;div&gt;&lt;font style=&quot;font-size: 50px;&quot;&gt;10kΩ&lt;/font&gt;&lt;/div&gt;" style="text;html=1;align=center;verticalAlign=middle;resizable=0;points=[];autosize=1;strokeColor=none;fillColor=none;strokeWidth=4;fontColor=#000000;" parent="1" vertex="1">
          <mxGeometry x="-600" y="225" width="140" height="140" as="geometry" />
        </mxCell>
        <mxCell id="9zgsoIFImKlDmgQNj-1o-2" value="" style="endArrow=none;html=1;rounded=0;strokeWidth=4;strokeColor=#000000;" parent="1" edge="1">
          <mxGeometry width="50" height="50" relative="1" as="geometry">
            <mxPoint x="-360" y="720" as="sourcePoint" />
            <mxPoint x="-360" y="640" as="targetPoint" />
            <Array as="points" />
          </mxGeometry>
        </mxCell>
        <mxCell id="9zgsoIFImKlDmgQNj-1o-5" value="" style="verticalLabelPosition=bottom;verticalAlign=top;html=1;shape=mxgraph.basic.acute_triangle;dx=0.5;rotation=180;strokeWidth=4;fillColor=none;direction=south;strokeColor=#000000;" parent="1" vertex="1">
          <mxGeometry x="-357" y="643" width="53" height="75" as="geometry" />
        </mxCell>
        <mxCell id="9zgsoIFImKlDmgQNj-1o-9" value="" style="endArrow=classic;html=1;rounded=0;strokeWidth=4;entryX=0.5;entryY=1;entryDx=0;entryDy=0;" parent="1" target="rsWcSZFI2ZlMxmA-CvCg-13" edge="1">
          <mxGeometry width="50" height="50" relative="1" as="geometry">
            <mxPoint x="-80" y="680" as="sourcePoint" />
            <mxPoint x="-150" y="590" as="targetPoint" />
            <Array as="points">
              <mxPoint x="-80" y="620" />
              <mxPoint x="-157" y="620" />
            </Array>
          </mxGeometry>
        </mxCell>
        <mxCell id="9zgsoIFImKlDmgQNj-1o-10" value="&lt;span style=&quot;font-size: 50px;&quot;&gt;VD1&lt;/span&gt;" style="text;html=1;align=center;verticalAlign=middle;resizable=0;points=[];autosize=1;strokeColor=none;fillColor=none;strokeWidth=4;fontColor=#000000;" parent="1" vertex="1">
          <mxGeometry x="-400" y="570" width="120" height="70" as="geometry" />
        </mxCell>
        <mxCell id="9zgsoIFImKlDmgQNj-1o-18" value="" style="endArrow=none;html=1;rounded=0;strokeWidth=6;fontColor=#000000;" parent="1" edge="1">
          <mxGeometry width="50" height="50" relative="1" as="geometry">
            <mxPoint x="-300" y="469" as="sourcePoint" />
            <mxPoint x="-300" y="389" as="targetPoint" />
          </mxGeometry>
        </mxCell>
        <mxCell id="9zgsoIFImKlDmgQNj-1o-19" value="" style="endArrow=none;html=1;rounded=0;strokeWidth=4;fontColor=#000000;" parent="1" edge="1">
          <mxGeometry width="50" height="50" relative="1" as="geometry">
            <mxPoint x="-300" y="409" as="sourcePoint" />
            <mxPoint x="-260" y="389" as="targetPoint" />
          </mxGeometry>
        </mxCell>
        <mxCell id="9zgsoIFImKlDmgQNj-1o-20" value="" style="endArrow=classic;html=1;rounded=0;strokeWidth=4;fontColor=#000000;" parent="1" edge="1">
          <mxGeometry width="50" height="50" relative="1" as="geometry">
            <mxPoint x="-300" y="449" as="sourcePoint" />
            <mxPoint x="-260" y="469" as="targetPoint" />
          </mxGeometry>
        </mxCell>
        <mxCell id="9zgsoIFImKlDmgQNj-1o-21" value="" style="endArrow=none;html=1;rounded=0;strokeWidth=4;fontColor=#000000;entryX=0.5;entryY=1;entryDx=0;entryDy=0;" parent="1" target="9zgsoIFImKlDmgQNj-1o-35" edge="1">
          <mxGeometry width="50" height="50" relative="1" as="geometry">
            <mxPoint x="-260" y="390" as="sourcePoint" />
            <mxPoint x="-260" y="80" as="targetPoint" />
          </mxGeometry>
        </mxCell>
        <mxCell id="9zgsoIFImKlDmgQNj-1o-22" value="" style="endArrow=none;html=1;rounded=0;strokeWidth=4;fontColor=#000000;entryX=0.5;entryY=0;entryDx=0;entryDy=0;" parent="1" target="9zgsoIFImKlDmgQNj-1o-32" edge="1">
          <mxGeometry width="50" height="50" relative="1" as="geometry">
            <mxPoint x="-260" y="469" as="sourcePoint" />
            <mxPoint x="-260" y="680" as="targetPoint" />
          </mxGeometry>
        </mxCell>
        <mxCell id="9zgsoIFImKlDmgQNj-1o-25" value="" style="endArrow=none;html=1;rounded=0;strokeWidth=4;fontColor=#000000;entryX=1;entryY=0.5;entryDx=0;entryDy=0;" parent="1" target="9zgsoIFImKlDmgQNj-1o-30" edge="1">
          <mxGeometry width="50" height="50" relative="1" as="geometry">
            <mxPoint x="-300" y="430" as="sourcePoint" />
            <mxPoint x="-380" y="460" as="targetPoint" />
          </mxGeometry>
        </mxCell>
        <mxCell id="9zgsoIFImKlDmgQNj-1o-30" value="" style="ellipse;whiteSpace=wrap;html=1;aspect=fixed;fillColor=#000000;strokeWidth=4;strokeColor=#000000;fontColor=#000000;" parent="1" vertex="1">
          <mxGeometry x="-450" y="420" width="20" height="20" as="geometry" />
        </mxCell>
        <mxCell id="9zgsoIFImKlDmgQNj-1o-31" value="" style="endArrow=none;html=1;rounded=0;strokeWidth=4;fontColor=#000000;entryX=0.5;entryY=0;entryDx=0;entryDy=0;exitX=1;exitY=0.5;exitDx=0;exitDy=0;" parent="1" source="rsWcSZFI2ZlMxmA-CvCg-6" target="9zgsoIFImKlDmgQNj-1o-30" edge="1">
          <mxGeometry width="50" height="50" relative="1" as="geometry">
            <mxPoint x="-290" y="440" as="sourcePoint" />
            <mxPoint x="-420" y="440" as="targetPoint" />
          </mxGeometry>
        </mxCell>
        <mxCell id="9zgsoIFImKlDmgQNj-1o-32" value="" style="ellipse;whiteSpace=wrap;html=1;aspect=fixed;fillColor=#000000;strokeWidth=4;strokeColor=#000000;fontColor=#000000;" parent="1" vertex="1">
          <mxGeometry x="-270" y="670.5" width="20" height="20" as="geometry" />
        </mxCell>
        <mxCell id="9zgsoIFImKlDmgQNj-1o-34" value="" style="endArrow=none;html=1;rounded=0;strokeWidth=4;entryX=1;entryY=0.5;entryDx=0;entryDy=0;strokeColor=#000000;" parent="1" target="9zgsoIFImKlDmgQNj-1o-32" edge="1">
          <mxGeometry width="50" height="50" relative="1" as="geometry">
            <mxPoint x="-197" y="681" as="sourcePoint" />
            <mxPoint x="-420" y="690" as="targetPoint" />
          </mxGeometry>
        </mxCell>
        <mxCell id="9zgsoIFImKlDmgQNj-1o-35" value="" style="ellipse;whiteSpace=wrap;html=1;aspect=fixed;fillColor=#000000;strokeWidth=4;strokeColor=#000000;fontColor=#000000;" parent="1" vertex="1">
          <mxGeometry x="-270" y="70" width="20" height="20" as="geometry" />
        </mxCell>
        <mxCell id="9zgsoIFImKlDmgQNj-1o-37" value="&lt;span style=&quot;font-size: 50px;&quot;&gt;V1&lt;/span&gt;&lt;div&gt;&lt;span style=&quot;font-size: 50px;&quot;&gt;9013&lt;/span&gt;&lt;/div&gt;" style="text;html=1;align=center;verticalAlign=middle;resizable=0;points=[];autosize=1;strokeColor=none;fillColor=none;strokeWidth=4;fontColor=#000000;" parent="1" vertex="1">
          <mxGeometry x="-262" y="370" width="130" height="130" as="geometry" />
        </mxCell>
        <mxCell id="nEoBzrIvQ1YntwuLPByI-1" value="" style="ellipse;whiteSpace=wrap;html=1;aspect=fixed;labelBackgroundColor=#000000;labelBorderColor=default;fontColor=#000000;" vertex="1" parent="1">
          <mxGeometry x="3" y="-1281" as="geometry" />
        </mxCell>
        <mxCell id="nEoBzrIvQ1YntwuLPByI-2" value="&lt;font style=&quot;font-size: 50px;&quot;&gt;A1&lt;/font&gt;" style="triangle;whiteSpace=wrap;html=1;strokeWidth=6;fontColor=#000000;" vertex="1" parent="1">
          <mxGeometry x="298" y="-1041" width="120" height="160" as="geometry" />
        </mxCell>
        <mxCell id="nEoBzrIvQ1YntwuLPByI-3" value="" style="endArrow=none;html=1;rounded=0;exitX=0;exitY=0.25;exitDx=0;exitDy=0;strokeWidth=4;fontColor=#000000;" edge="1" parent="1" source="nEoBzrIvQ1YntwuLPByI-2">
          <mxGeometry width="50" height="50" relative="1" as="geometry">
            <mxPoint x="338" y="-921" as="sourcePoint" />
            <mxPoint x="13" y="-1001" as="targetPoint" />
          </mxGeometry>
        </mxCell>
        <mxCell id="nEoBzrIvQ1YntwuLPByI-4" value="" style="endArrow=none;html=1;rounded=0;exitX=0;exitY=0.75;exitDx=0;exitDy=0;strokeWidth=4;fontColor=#000000;" edge="1" parent="1" source="nEoBzrIvQ1YntwuLPByI-2">
          <mxGeometry width="50" height="50" relative="1" as="geometry">
            <mxPoint x="318" y="-921" as="sourcePoint" />
            <mxPoint x="93" y="-921" as="targetPoint" />
          </mxGeometry>
        </mxCell>
        <mxCell id="nEoBzrIvQ1YntwuLPByI-5" value="" style="endArrow=none;html=1;rounded=0;entryX=1;entryY=0.5;entryDx=0;entryDy=0;strokeWidth=4;fontColor=#000000;" edge="1" parent="1" target="nEoBzrIvQ1YntwuLPByI-2">
          <mxGeometry width="50" height="50" relative="1" as="geometry">
            <mxPoint x="478" y="-961" as="sourcePoint" />
            <mxPoint x="278" y="-901" as="targetPoint" />
          </mxGeometry>
        </mxCell>
        <mxCell id="nEoBzrIvQ1YntwuLPByI-6" value="&lt;font style=&quot;font-size: 50px;&quot;&gt;+&lt;/font&gt;" style="text;html=1;align=center;verticalAlign=middle;resizable=0;points=[];autosize=1;strokeColor=none;fillColor=none;strokeWidth=4;fontColor=#000000;" vertex="1" parent="1">
          <mxGeometry x="248" y="-1056" width="50" height="70" as="geometry" />
        </mxCell>
        <mxCell id="nEoBzrIvQ1YntwuLPByI-7" value="&lt;font style=&quot;font-size: 50px;&quot;&gt;-&lt;/font&gt;" style="text;html=1;align=center;verticalAlign=middle;resizable=0;points=[];autosize=1;strokeColor=none;fillColor=none;strokeWidth=4;fontColor=#000000;" vertex="1" parent="1">
          <mxGeometry x="253" y="-936" width="40" height="70" as="geometry" />
        </mxCell>
        <mxCell id="nEoBzrIvQ1YntwuLPByI-8" value="&lt;font style=&quot;font-size: 50px;&quot;&gt;A2&lt;/font&gt;" style="triangle;whiteSpace=wrap;html=1;strokeWidth=6;fontColor=#000000;" vertex="1" parent="1">
          <mxGeometry x="298" y="-721" width="120" height="160" as="geometry" />
        </mxCell>
        <mxCell id="nEoBzrIvQ1YntwuLPByI-9" value="" style="endArrow=none;html=1;rounded=0;exitX=0;exitY=0.25;exitDx=0;exitDy=0;strokeWidth=4;fontColor=#000000;" edge="1" parent="1" source="nEoBzrIvQ1YntwuLPByI-8">
          <mxGeometry width="50" height="50" relative="1" as="geometry">
            <mxPoint x="338" y="-601" as="sourcePoint" />
            <mxPoint x="198" y="-681" as="targetPoint" />
          </mxGeometry>
        </mxCell>
        <mxCell id="nEoBzrIvQ1YntwuLPByI-10" value="" style="endArrow=none;html=1;rounded=0;exitX=0;exitY=0.5;exitDx=0;exitDy=0;strokeWidth=4;fontColor=#000000;entryX=0;entryY=0.5;entryDx=0;entryDy=0;strokeColor=#0000FF;" edge="1" parent="1" source="nEoBzrIvQ1YntwuLPByI-62" target="nEoBzrIvQ1YntwuLPByI-86">
          <mxGeometry width="50" height="50" relative="1" as="geometry">
            <mxPoint x="318" y="-601" as="sourcePoint" />
            <mxPoint x="-57" y="-601" as="targetPoint" />
          </mxGeometry>
        </mxCell>
        <mxCell id="nEoBzrIvQ1YntwuLPByI-11" value="" style="endArrow=none;html=1;rounded=0;entryX=1;entryY=0.5;entryDx=0;entryDy=0;strokeWidth=4;fontColor=#000000;" edge="1" parent="1" target="nEoBzrIvQ1YntwuLPByI-8">
          <mxGeometry width="50" height="50" relative="1" as="geometry">
            <mxPoint x="478" y="-641" as="sourcePoint" />
            <mxPoint x="278" y="-581" as="targetPoint" />
          </mxGeometry>
        </mxCell>
        <mxCell id="nEoBzrIvQ1YntwuLPByI-12" value="" style="rounded=0;whiteSpace=wrap;html=1;direction=south;strokeWidth=6;fontColor=#000000;" vertex="1" parent="1">
          <mxGeometry x="178" y="-1121" width="40" height="80" as="geometry" />
        </mxCell>
        <mxCell id="nEoBzrIvQ1YntwuLPByI-13" value="" style="rounded=0;whiteSpace=wrap;html=1;direction=south;fontStyle=1;strokeWidth=6;fontColor=#000000;" vertex="1" parent="1">
          <mxGeometry x="178" y="-841" width="40" height="80" as="geometry" />
        </mxCell>
        <mxCell id="nEoBzrIvQ1YntwuLPByI-14" value="" style="rounded=0;whiteSpace=wrap;html=1;direction=south;strokeWidth=6;fontColor=#000000;" vertex="1" parent="1">
          <mxGeometry x="178" y="-561" width="40" height="80" as="geometry" />
        </mxCell>
        <mxCell id="nEoBzrIvQ1YntwuLPByI-15" value="" style="endArrow=none;html=1;rounded=0;entryX=1;entryY=0.5;entryDx=0;entryDy=0;exitX=0;exitY=0.5;exitDx=0;exitDy=0;strokeWidth=4;fontColor=#000000;" edge="1" parent="1" source="nEoBzrIvQ1YntwuLPByI-13" target="nEoBzrIvQ1YntwuLPByI-12">
          <mxGeometry width="50" height="50" relative="1" as="geometry">
            <mxPoint x="358" y="-901" as="sourcePoint" />
            <mxPoint x="458" y="-1001" as="targetPoint" />
          </mxGeometry>
        </mxCell>
        <mxCell id="nEoBzrIvQ1YntwuLPByI-16" value="" style="endArrow=none;html=1;rounded=0;entryX=1;entryY=0.5;entryDx=0;entryDy=0;exitX=0;exitY=0.5;exitDx=0;exitDy=0;strokeWidth=4;fontColor=#000000;" edge="1" parent="1" source="nEoBzrIvQ1YntwuLPByI-14" target="nEoBzrIvQ1YntwuLPByI-13">
          <mxGeometry width="50" height="50" relative="1" as="geometry">
            <mxPoint x="218" y="-821" as="sourcePoint" />
            <mxPoint x="218" y="-1021" as="targetPoint" />
          </mxGeometry>
        </mxCell>
        <mxCell id="nEoBzrIvQ1YntwuLPByI-17" value="" style="ellipse;whiteSpace=wrap;html=1;aspect=fixed;fillColor=#000000;strokeWidth=4;strokeColor=none;fontColor=#000000;" vertex="1" parent="1">
          <mxGeometry x="188" y="-931" width="20" height="20" as="geometry" />
        </mxCell>
        <mxCell id="nEoBzrIvQ1YntwuLPByI-18" value="" style="ellipse;whiteSpace=wrap;html=1;aspect=fixed;fillColor=#000000;strokeWidth=4;strokeColor=none;fontColor=#000000;" vertex="1" parent="1">
          <mxGeometry x="188" y="-691" width="20" height="20" as="geometry" />
        </mxCell>
        <mxCell id="nEoBzrIvQ1YntwuLPByI-19" value="&lt;font style=&quot;font-size: 50px;&quot;&gt;触&lt;br&gt;发&lt;br&gt;器&lt;/font&gt;" style="rounded=0;whiteSpace=wrap;html=1;direction=south;strokeWidth=6;fontColor=#000000;" vertex="1" parent="1">
          <mxGeometry x="478" y="-1046" width="120" height="485" as="geometry" />
        </mxCell>
        <mxCell id="nEoBzrIvQ1YntwuLPByI-20" value="&lt;font style=&quot;font-size: 50px;&quot;&gt;+&lt;/font&gt;" style="text;html=1;align=center;verticalAlign=middle;resizable=0;points=[];autosize=1;strokeColor=none;fillColor=none;strokeWidth=4;fontColor=#000000;" vertex="1" parent="1">
          <mxGeometry x="248" y="-741" width="50" height="70" as="geometry" />
        </mxCell>
        <mxCell id="nEoBzrIvQ1YntwuLPByI-21" value="&lt;font style=&quot;font-size: 50px;&quot;&gt;-&lt;/font&gt;" style="text;html=1;align=center;verticalAlign=middle;resizable=0;points=[];autosize=1;strokeColor=none;fillColor=none;strokeWidth=4;fontColor=#000000;" vertex="1" parent="1">
          <mxGeometry x="253" y="-621" width="40" height="70" as="geometry" />
        </mxCell>
        <mxCell id="nEoBzrIvQ1YntwuLPByI-23" value="" style="endArrow=none;html=1;rounded=0;entryX=0;entryY=0.5;entryDx=0;entryDy=0;strokeWidth=4;fontColor=#000000;" edge="1" parent="1" source="nEoBzrIvQ1YntwuLPByI-58" target="nEoBzrIvQ1YntwuLPByI-12">
          <mxGeometry width="50" height="50" relative="1" as="geometry">
            <mxPoint x="198" y="-1201" as="sourcePoint" />
            <mxPoint x="418" y="-901" as="targetPoint" />
          </mxGeometry>
        </mxCell>
        <mxCell id="nEoBzrIvQ1YntwuLPByI-25" value="" style="endArrow=none;html=1;rounded=0;entryX=0.837;entryY=0;entryDx=0;entryDy=0;entryPerimeter=0;strokeWidth=4;fontColor=#000000;" edge="1" parent="1" target="nEoBzrIvQ1YntwuLPByI-19">
          <mxGeometry width="50" height="50" relative="1" as="geometry">
            <mxPoint x="683" y="-640" as="sourcePoint" />
            <mxPoint x="608.0000000000001" y="-645.9350000000001" as="targetPoint" />
          </mxGeometry>
        </mxCell>
        <mxCell id="nEoBzrIvQ1YntwuLPByI-26" value="" style="endArrow=none;html=1;rounded=0;strokeWidth=4;fontColor=#000000;" edge="1" parent="1">
          <mxGeometry width="50" height="50" relative="1" as="geometry">
            <mxPoint x="683" y="-341" as="sourcePoint" />
            <mxPoint x="683" y="-641" as="targetPoint" />
          </mxGeometry>
        </mxCell>
        <mxCell id="nEoBzrIvQ1YntwuLPByI-27" value="" style="endArrow=none;html=1;rounded=0;strokeWidth=4;entryX=1;entryY=0.5;entryDx=0;entryDy=0;fontColor=#000000;" edge="1" parent="1" target="nEoBzrIvQ1YntwuLPByI-53">
          <mxGeometry width="50" height="50" relative="1" as="geometry">
            <mxPoint x="398" y="-340" as="sourcePoint" />
            <mxPoint x="483" y="-340" as="targetPoint" />
          </mxGeometry>
        </mxCell>
        <mxCell id="nEoBzrIvQ1YntwuLPByI-28" value="" style="endArrow=none;html=1;rounded=0;strokeWidth=6;fontColor=#000000;" edge="1" parent="1">
          <mxGeometry width="50" height="50" relative="1" as="geometry">
            <mxPoint x="398" y="-300" as="sourcePoint" />
            <mxPoint x="398" y="-380" as="targetPoint" />
          </mxGeometry>
        </mxCell>
        <mxCell id="nEoBzrIvQ1YntwuLPByI-29" value="" style="endArrow=none;html=1;rounded=0;strokeWidth=4;fontColor=#000000;" edge="1" parent="1">
          <mxGeometry width="50" height="50" relative="1" as="geometry">
            <mxPoint x="398" y="-360" as="sourcePoint" />
            <mxPoint x="358" y="-380" as="targetPoint" />
          </mxGeometry>
        </mxCell>
        <mxCell id="nEoBzrIvQ1YntwuLPByI-30" value="" style="endArrow=classic;html=1;rounded=0;strokeWidth=4;fontColor=#000000;" edge="1" parent="1">
          <mxGeometry width="50" height="50" relative="1" as="geometry">
            <mxPoint x="398" y="-320" as="sourcePoint" />
            <mxPoint x="358" y="-300" as="targetPoint" />
          </mxGeometry>
        </mxCell>
        <mxCell id="nEoBzrIvQ1YntwuLPByI-31" value="" style="endArrow=none;html=1;rounded=0;strokeWidth=4;fontColor=#000000;" edge="1" parent="1">
          <mxGeometry width="50" height="50" relative="1" as="geometry">
            <mxPoint x="358" y="-379" as="sourcePoint" />
            <mxPoint x="358" y="-399" as="targetPoint" />
          </mxGeometry>
        </mxCell>
        <mxCell id="nEoBzrIvQ1YntwuLPByI-34" value="" style="endArrow=none;html=1;rounded=0;strokeWidth=4;fontColor=#000000;strokeColor=#0000FF;" edge="1" parent="1">
          <mxGeometry width="50" height="50" relative="1" as="geometry">
            <mxPoint x="359" y="-400" as="sourcePoint" />
            <mxPoint x="-437" y="-401" as="targetPoint" />
          </mxGeometry>
        </mxCell>
        <mxCell id="nEoBzrIvQ1YntwuLPByI-35" value="" style="endArrow=none;html=1;rounded=0;entryX=1;entryY=0.5;entryDx=0;entryDy=0;strokeWidth=4;fontColor=#000000;" edge="1" parent="1" source="nEoBzrIvQ1YntwuLPByI-37" target="nEoBzrIvQ1YntwuLPByI-14">
          <mxGeometry width="50" height="50" relative="1" as="geometry">
            <mxPoint x="198" y="-261" as="sourcePoint" />
            <mxPoint x="378" y="-471" as="targetPoint" />
          </mxGeometry>
        </mxCell>
        <mxCell id="nEoBzrIvQ1YntwuLPByI-36" value="" style="endArrow=none;html=1;rounded=0;entryX=1;entryY=0.5;entryDx=0;entryDy=0;strokeWidth=4;fontColor=#000000;" edge="1" parent="1" target="nEoBzrIvQ1YntwuLPByI-37">
          <mxGeometry width="50" height="50" relative="1" as="geometry">
            <mxPoint x="198" y="-280" as="sourcePoint" />
            <mxPoint x="198" y="-500" as="targetPoint" />
          </mxGeometry>
        </mxCell>
        <mxCell id="nEoBzrIvQ1YntwuLPByI-37" value="" style="ellipse;whiteSpace=wrap;html=1;aspect=fixed;fillColor=#000000;strokeWidth=4;strokeColor=none;fontColor=#000000;" vertex="1" parent="1">
          <mxGeometry x="188" y="-290" width="20" height="20" as="geometry" />
        </mxCell>
        <mxCell id="nEoBzrIvQ1YntwuLPByI-38" value="&lt;font style=&quot;font-size: 50px;&quot;&gt;6&lt;/font&gt;" style="text;html=1;align=center;verticalAlign=middle;resizable=0;points=[];autosize=1;strokeColor=default;fillColor=none;rounded=1;fontStyle=1;strokeWidth=4;dashed=1;opacity=50;shadow=1;glass=1;dashPattern=1 1;fontColor=#000000;" vertex="1" parent="1">
          <mxGeometry x="-47" y="-1041" width="50" height="70" as="geometry" />
        </mxCell>
        <mxCell id="nEoBzrIvQ1YntwuLPByI-39" value="&lt;font style=&quot;font-size: 50px;&quot;&gt;&lt;b&gt;5&lt;/b&gt;&lt;/font&gt;" style="text;html=1;align=center;verticalAlign=middle;resizable=0;points=[];autosize=1;strokeColor=default;fillColor=none;strokeWidth=4;dashed=1;opacity=50;rounded=1;shadow=1;glass=1;dashPattern=1 1;fontColor=#000000;" vertex="1" parent="1">
          <mxGeometry x="108" y="-911" width="50" height="70" as="geometry" />
        </mxCell>
        <mxCell id="nEoBzrIvQ1YntwuLPByI-40" value="&lt;font style=&quot;font-size: 50px;&quot;&gt;&lt;b&gt;2&lt;/b&gt;&lt;/font&gt;" style="text;html=1;align=center;verticalAlign=middle;resizable=0;points=[];autosize=1;strokeColor=default;fillColor=none;strokeWidth=4;dashed=1;opacity=50;rounded=1;shadow=1;glass=1;dashPattern=1 1;fontColor=#000000;" vertex="1" parent="1">
          <mxGeometry x="-47" y="-691" width="50" height="70" as="geometry" />
        </mxCell>
        <mxCell id="nEoBzrIvQ1YntwuLPByI-41" value="&lt;font style=&quot;font-size: 50px;&quot;&gt;&lt;b&gt;7&lt;/b&gt;&lt;/font&gt;" style="text;html=1;align=center;verticalAlign=middle;resizable=0;points=[];autosize=1;strokeColor=default;fillColor=none;strokeWidth=4;dashed=1;opacity=50;rounded=1;shadow=1;glass=1;dashPattern=1 1;fontColor=#000000;" vertex="1" parent="1">
          <mxGeometry x="293" y="-481" width="50" height="70" as="geometry" />
        </mxCell>
        <mxCell id="nEoBzrIvQ1YntwuLPByI-42" value="&lt;font style=&quot;font-size: 50px;&quot;&gt;&lt;b&gt;1&lt;/b&gt;&lt;/font&gt;" style="text;html=1;align=center;verticalAlign=middle;resizable=0;points=[];autosize=1;strokeColor=default;fillColor=none;strokeWidth=4;dashed=1;opacity=50;rounded=1;shadow=1;glass=1;dashPattern=1 1;fontColor=#000000;" vertex="1" parent="1">
          <mxGeometry x="293" y="-360" width="50" height="70" as="geometry" />
        </mxCell>
        <mxCell id="nEoBzrIvQ1YntwuLPByI-43" value="&lt;font style=&quot;font-size: 50px;&quot;&gt;R&lt;sub&gt;t&lt;/sub&gt;&lt;/font&gt;" style="text;html=1;align=center;verticalAlign=middle;resizable=0;points=[];autosize=1;strokeColor=none;fillColor=none;strokeWidth=4;fontColor=#000000;" vertex="1" parent="1">
          <mxGeometry x="108" y="-1126" width="70" height="80" as="geometry" />
        </mxCell>
        <mxCell id="nEoBzrIvQ1YntwuLPByI-44" value="&lt;font style=&quot;font-size: 50px;&quot;&gt;R&lt;/font&gt;" style="text;html=1;align=center;verticalAlign=middle;resizable=0;points=[];autosize=1;strokeColor=none;fillColor=none;strokeWidth=4;fontColor=#000000;" vertex="1" parent="1">
          <mxGeometry x="408" y="-1043" width="60" height="70" as="geometry" />
        </mxCell>
        <mxCell id="nEoBzrIvQ1YntwuLPByI-45" value="&lt;span style=&quot;font-size: 50px;&quot;&gt;S&lt;/span&gt;" style="text;html=1;align=center;verticalAlign=middle;resizable=0;points=[];autosize=1;strokeColor=none;fillColor=none;strokeWidth=4;fontColor=#000000;" vertex="1" parent="1">
          <mxGeometry x="408" y="-716" width="60" height="70" as="geometry" />
        </mxCell>
        <mxCell id="nEoBzrIvQ1YntwuLPByI-46" value="&lt;span style=&quot;font-size: 50px;&quot;&gt;Q&lt;/span&gt;" style="text;html=1;align=center;verticalAlign=middle;resizable=0;points=[];autosize=1;strokeColor=none;fillColor=none;strokeWidth=4;fontColor=#000000;" vertex="1" parent="1">
          <mxGeometry x="608" y="-1041" width="60" height="70" as="geometry" />
        </mxCell>
        <mxCell id="nEoBzrIvQ1YntwuLPByI-47" value="&lt;font style=&quot;font-size: 50px;&quot;&gt;Q&lt;/font&gt;" style="text;html=1;align=center;verticalAlign=middle;resizable=0;points=[];autosize=1;strokeColor=none;fillColor=none;strokeWidth=4;fontColor=#000000;" vertex="1" parent="1">
          <mxGeometry x="608" y="-716" width="60" height="70" as="geometry" />
        </mxCell>
        <mxCell id="nEoBzrIvQ1YntwuLPByI-48" value="" style="endArrow=none;html=1;rounded=0;strokeWidth=4;fontColor=#000000;" edge="1" parent="1">
          <mxGeometry width="50" height="50" relative="1" as="geometry">
            <mxPoint x="658" y="-711" as="sourcePoint" />
            <mxPoint x="618" y="-711" as="targetPoint" />
          </mxGeometry>
        </mxCell>
        <mxCell id="nEoBzrIvQ1YntwuLPByI-49" value="&lt;span style=&quot;font-size: 50px;&quot;&gt;T&lt;/span&gt;" style="text;html=1;align=center;verticalAlign=middle;resizable=0;points=[];autosize=1;strokeColor=none;fillColor=none;strokeWidth=4;fontColor=#000000;" vertex="1" parent="1">
          <mxGeometry x="413" y="-400" width="50" height="70" as="geometry" />
        </mxCell>
        <mxCell id="nEoBzrIvQ1YntwuLPByI-50" value="&lt;font style=&quot;font-size: 50px;&quot;&gt;8&lt;/font&gt;" style="text;html=1;align=center;verticalAlign=middle;resizable=0;points=[];autosize=1;strokeColor=default;fillColor=none;rounded=1;fontStyle=1;strokeWidth=4;dashed=1;opacity=50;shadow=1;glass=1;dashPattern=1 1;fontColor=#000000;" vertex="1" parent="1">
          <mxGeometry x="233" y="-1191" width="50" height="70" as="geometry" />
        </mxCell>
        <mxCell id="nEoBzrIvQ1YntwuLPByI-51" value="&lt;font style=&quot;font-size: 50px;&quot;&gt;4&lt;/font&gt;" style="text;html=1;align=center;verticalAlign=middle;resizable=0;points=[];autosize=1;strokeColor=default;fillColor=none;rounded=1;fontStyle=1;strokeWidth=4;dashed=1;opacity=50;shadow=1;glass=1;dashPattern=1 1;fontColor=#000000;" vertex="1" parent="1">
          <mxGeometry x="558" y="-1191" width="50" height="70" as="geometry" />
        </mxCell>
        <mxCell id="nEoBzrIvQ1YntwuLPByI-52" value="&lt;font style=&quot;font-size: 50px;&quot;&gt;3&lt;/font&gt;" style="text;html=1;align=center;verticalAlign=middle;resizable=0;points=[];autosize=1;strokeColor=default;fillColor=none;rounded=1;fontStyle=1;strokeWidth=4;dashed=1;opacity=50;shadow=1;glass=1;dashPattern=1 1;fontColor=#000000;" vertex="1" parent="1">
          <mxGeometry x="634" y="-936" width="50" height="70" as="geometry" />
        </mxCell>
        <mxCell id="nEoBzrIvQ1YntwuLPByI-53" value="" style="rounded=0;whiteSpace=wrap;html=1;direction=west;strokeWidth=6;fontColor=#000000;" vertex="1" parent="1">
          <mxGeometry x="508" y="-360" width="80" height="40" as="geometry" />
        </mxCell>
        <mxCell id="nEoBzrIvQ1YntwuLPByI-54" value="" style="endArrow=none;html=1;rounded=0;strokeWidth=4;exitX=0;exitY=0.5;exitDx=0;exitDy=0;fontColor=#000000;" edge="1" parent="1" source="nEoBzrIvQ1YntwuLPByI-53">
          <mxGeometry width="50" height="50" relative="1" as="geometry">
            <mxPoint x="408" y="-330" as="sourcePoint" />
            <mxPoint x="683" y="-341" as="targetPoint" />
          </mxGeometry>
        </mxCell>
        <mxCell id="nEoBzrIvQ1YntwuLPByI-55" value="&lt;span style=&quot;font-size: 50px;&quot;&gt;R&lt;sub&gt;p&lt;/sub&gt;&lt;/span&gt;" style="text;html=1;align=center;verticalAlign=middle;resizable=0;points=[];autosize=1;strokeColor=none;fillColor=none;strokeWidth=4;fontColor=#000000;" vertex="1" parent="1">
          <mxGeometry x="508" y="-446" width="80" height="80" as="geometry" />
        </mxCell>
        <mxCell id="nEoBzrIvQ1YntwuLPByI-56" value="" style="endArrow=none;html=1;rounded=0;strokeWidth=4;strokeColor=#000000;fontColor=#000000;exitX=0;exitY=0.5;exitDx=0;exitDy=0;" edge="1" parent="1" source="nEoBzrIvQ1YntwuLPByI-19" target="nEoBzrIvQ1YntwuLPByI-58">
          <mxGeometry width="50" height="50" relative="1" as="geometry">
            <mxPoint x="528" y="-1201" as="sourcePoint" />
            <mxPoint x="15" y="-1201" as="targetPoint" />
            <Array as="points">
              <mxPoint x="538" y="-1201" />
            </Array>
          </mxGeometry>
        </mxCell>
        <mxCell id="nEoBzrIvQ1YntwuLPByI-57" value="" style="endArrow=none;html=1;rounded=0;entryX=0;entryY=0.5;entryDx=0;entryDy=0;strokeWidth=4;fontColor=#000000;" edge="1" parent="1" target="nEoBzrIvQ1YntwuLPByI-58">
          <mxGeometry width="50" height="50" relative="1" as="geometry">
            <mxPoint x="198" y="-1201" as="sourcePoint" />
            <mxPoint x="198" y="-1121" as="targetPoint" />
          </mxGeometry>
        </mxCell>
        <mxCell id="nEoBzrIvQ1YntwuLPByI-58" value="" style="ellipse;whiteSpace=wrap;html=1;aspect=fixed;fillColor=#0000FF;strokeWidth=4;strokeColor=#0000FF;fontColor=#000000;" vertex="1" parent="1">
          <mxGeometry x="188" y="-1211" width="20" height="20" as="geometry" />
        </mxCell>
        <mxCell id="nEoBzrIvQ1YntwuLPByI-59" value="" style="ellipse;whiteSpace=wrap;html=1;aspect=fixed;fillColor=#0000FF;strokeWidth=4;strokeColor=#0000FF;fontColor=#000000;" vertex="1" parent="1">
          <mxGeometry x="83" y="-290" width="20" height="20" as="geometry" />
        </mxCell>
        <mxCell id="nEoBzrIvQ1YntwuLPByI-60" value="" style="endArrow=none;html=1;rounded=0;strokeWidth=4;strokeColor=#000000;fontColor=#000000;" edge="1" parent="1">
          <mxGeometry width="50" height="50" relative="1" as="geometry">
            <mxPoint x="15" y="-603" as="sourcePoint" />
            <mxPoint x="15" y="-1003" as="targetPoint" />
          </mxGeometry>
        </mxCell>
        <mxCell id="nEoBzrIvQ1YntwuLPByI-61" value="" style="endArrow=none;html=1;rounded=0;exitX=0;exitY=0.75;exitDx=0;exitDy=0;strokeWidth=4;fontColor=#000000;" edge="1" parent="1" source="nEoBzrIvQ1YntwuLPByI-8" target="nEoBzrIvQ1YntwuLPByI-62">
          <mxGeometry width="50" height="50" relative="1" as="geometry">
            <mxPoint x="298" y="-601" as="sourcePoint" />
            <mxPoint x="3" y="-601" as="targetPoint" />
          </mxGeometry>
        </mxCell>
        <mxCell id="nEoBzrIvQ1YntwuLPByI-62" value="" style="ellipse;whiteSpace=wrap;html=1;aspect=fixed;fillColor=#0000FF;strokeWidth=4;strokeColor=#0000FF;fontColor=#000000;" vertex="1" parent="1">
          <mxGeometry x="5" y="-611" width="20" height="20" as="geometry" />
        </mxCell>
        <mxCell id="nEoBzrIvQ1YntwuLPByI-63" value="" style="endArrow=none;html=1;rounded=0;strokeWidth=4;strokeColor=#000000;fontColor=#000000;" edge="1" parent="1">
          <mxGeometry width="50" height="50" relative="1" as="geometry">
            <mxPoint x="93" y="-351" as="sourcePoint" />
            <mxPoint x="93" y="-922" as="targetPoint" />
          </mxGeometry>
        </mxCell>
        <mxCell id="nEoBzrIvQ1YntwuLPByI-64" value="" style="endArrow=none;html=1;rounded=0;strokeWidth=4;strokeColor=#000000;fontColor=#000000;" edge="1" parent="1">
          <mxGeometry width="50" height="50" relative="1" as="geometry">
            <mxPoint x="113" y="-353" as="sourcePoint" />
            <mxPoint x="73" y="-353" as="targetPoint" />
          </mxGeometry>
        </mxCell>
        <mxCell id="nEoBzrIvQ1YntwuLPByI-65" value="" style="endArrow=none;html=1;rounded=0;strokeWidth=4;strokeColor=#000000;fontColor=#000000;" edge="1" parent="1">
          <mxGeometry width="50" height="50" relative="1" as="geometry">
            <mxPoint x="113" y="-333" as="sourcePoint" />
            <mxPoint x="73" y="-333" as="targetPoint" />
          </mxGeometry>
        </mxCell>
        <mxCell id="nEoBzrIvQ1YntwuLPByI-66" value="" style="endArrow=none;html=1;rounded=0;strokeWidth=4;strokeColor=#000000;fontColor=#000000;" edge="1" parent="1">
          <mxGeometry width="50" height="50" relative="1" as="geometry">
            <mxPoint x="93" y="-290" as="sourcePoint" />
            <mxPoint x="93" y="-331" as="targetPoint" />
          </mxGeometry>
        </mxCell>
        <mxCell id="nEoBzrIvQ1YntwuLPByI-67" value="&lt;font style=&quot;font-size: 50px;&quot;&gt;V&lt;sub&gt;H&lt;/sub&gt;&lt;/font&gt;" style="text;html=1;align=center;verticalAlign=middle;resizable=0;points=[];autosize=1;strokeColor=none;fillColor=none;fontColor=#000000;" vertex="1" parent="1">
          <mxGeometry x="108" y="-991" width="90" height="80" as="geometry" />
        </mxCell>
        <mxCell id="nEoBzrIvQ1YntwuLPByI-68" value="&lt;font style=&quot;font-size: 50px;&quot;&gt;V&lt;sub&gt;L&lt;/sub&gt;&lt;/font&gt;" style="text;html=1;align=center;verticalAlign=middle;resizable=0;points=[];autosize=1;strokeColor=none;fillColor=none;fontColor=#000000;" vertex="1" parent="1">
          <mxGeometry x="113" y="-716" width="80" height="80" as="geometry" />
        </mxCell>
        <mxCell id="nEoBzrIvQ1YntwuLPByI-69" value="" style="endArrow=none;html=1;rounded=0;strokeWidth=4;strokeColor=#000000;fontColor=#000000;" edge="1" parent="1">
          <mxGeometry width="50" height="50" relative="1" as="geometry">
            <mxPoint x="168" y="-251" as="sourcePoint" />
            <mxPoint x="228" y="-251" as="targetPoint" />
          </mxGeometry>
        </mxCell>
        <mxCell id="nEoBzrIvQ1YntwuLPByI-70" value="" style="endArrow=none;html=1;rounded=0;strokeWidth=4;strokeColor=#000000;fontColor=#000000;" edge="1" parent="1">
          <mxGeometry width="50" height="50" relative="1" as="geometry">
            <mxPoint x="223" y="-242" as="sourcePoint" />
            <mxPoint x="173" y="-242" as="targetPoint" />
          </mxGeometry>
        </mxCell>
        <mxCell id="nEoBzrIvQ1YntwuLPByI-71" value="" style="endArrow=none;html=1;rounded=0;strokeWidth=4;strokeColor=#000000;fontColor=#000000;" edge="1" parent="1">
          <mxGeometry width="50" height="50" relative="1" as="geometry">
            <mxPoint x="213" y="-232" as="sourcePoint" />
            <mxPoint x="183" y="-232" as="targetPoint" />
          </mxGeometry>
        </mxCell>
        <mxCell id="nEoBzrIvQ1YntwuLPByI-72" value="" style="endArrow=none;html=1;rounded=0;strokeWidth=4;strokeColor=#000000;entryX=0.5;entryY=1;entryDx=0;entryDy=0;fontColor=#000000;" edge="1" parent="1" target="nEoBzrIvQ1YntwuLPByI-37">
          <mxGeometry width="50" height="50" relative="1" as="geometry">
            <mxPoint x="198" y="-249" as="sourcePoint" />
            <mxPoint x="233" y="-261" as="targetPoint" />
          </mxGeometry>
        </mxCell>
        <mxCell id="nEoBzrIvQ1YntwuLPByI-73" value="&lt;font&gt;&lt;span style=&quot;font-size: 50px;&quot;&gt;GND&lt;/span&gt;&lt;/font&gt;" style="text;html=1;align=center;verticalAlign=middle;resizable=0;points=[];autosize=1;strokeColor=none;fillColor=none;fontColor=#000000;" vertex="1" parent="1">
          <mxGeometry x="150" y="-240" width="130" height="70" as="geometry" />
        </mxCell>
        <mxCell id="nEoBzrIvQ1YntwuLPByI-74" value="" style="endArrow=none;html=1;rounded=0;strokeWidth=4;strokeColor=#000000;exitX=0.5;exitY=0;exitDx=0;exitDy=0;fontColor=#000000;" edge="1" parent="1" source="nEoBzrIvQ1YntwuLPByI-58">
          <mxGeometry width="50" height="50" relative="1" as="geometry">
            <mxPoint x="13" y="-811" as="sourcePoint" />
            <mxPoint x="198" y="-1231" as="targetPoint" />
          </mxGeometry>
        </mxCell>
        <mxCell id="nEoBzrIvQ1YntwuLPByI-75" value="" style="endArrow=none;html=1;rounded=0;strokeWidth=4;strokeColor=#000000;fontColor=#000000;" edge="1" parent="1">
          <mxGeometry width="50" height="50" relative="1" as="geometry">
            <mxPoint x="223" y="-1231" as="sourcePoint" />
            <mxPoint x="173" y="-1231" as="targetPoint" />
          </mxGeometry>
        </mxCell>
        <mxCell id="nEoBzrIvQ1YntwuLPByI-76" value="&lt;font style=&quot;font-size: 50px;&quot;&gt;V&lt;sub&gt;CC&lt;/sub&gt;&lt;/font&gt;" style="text;html=1;align=center;verticalAlign=middle;resizable=0;points=[];autosize=1;strokeColor=none;fillColor=none;fontColor=#000000;" vertex="1" parent="1">
          <mxGeometry x="45" y="-1281" width="120" height="80" as="geometry" />
        </mxCell>
        <mxCell id="nEoBzrIvQ1YntwuLPByI-77" value="" style="endArrow=none;html=1;rounded=0;strokeWidth=4;strokeColor=#0000FF;entryX=0;entryY=0.5;entryDx=0;entryDy=0;" edge="1" parent="1" target="nEoBzrIvQ1YntwuLPByI-59">
          <mxGeometry width="50" height="50" relative="1" as="geometry">
            <mxPoint x="14.170000000000002" y="-471" as="sourcePoint" />
            <mxPoint x="60" y="-270" as="targetPoint" />
            <Array as="points">
              <mxPoint x="14" y="-280" />
            </Array>
          </mxGeometry>
        </mxCell>
        <mxCell id="nEoBzrIvQ1YntwuLPByI-78" value="" style="endArrow=none;html=1;rounded=0;strokeWidth=4;strokeColor=#0000FF;entryX=0.5;entryY=1;entryDx=0;entryDy=0;" edge="1" parent="1" target="nEoBzrIvQ1YntwuLPByI-62">
          <mxGeometry width="50" height="50" relative="1" as="geometry">
            <mxPoint x="15" y="-490.48470052083337" as="sourcePoint" />
            <mxPoint x="33" y="-581" as="targetPoint" />
          </mxGeometry>
        </mxCell>
        <mxCell id="nEoBzrIvQ1YntwuLPByI-79" value="" style="group;strokeColor=#FFFFFF;container=0;" vertex="1" connectable="0" parent="1">
          <mxGeometry x="-15" y="-492" width="60" height="22" as="geometry" />
        </mxCell>
        <mxCell id="nEoBzrIvQ1YntwuLPByI-80" value="" style="rounded=0;whiteSpace=wrap;html=1;direction=south;strokeWidth=6;strokeColor=#0000FF;" vertex="1" parent="1">
          <mxGeometry x="-457" y="-1041" width="40" height="80" as="geometry" />
        </mxCell>
        <mxCell id="nEoBzrIvQ1YntwuLPByI-81" value="" style="endArrow=none;html=1;rounded=0;strokeWidth=4;entryX=0;entryY=0.5;entryDx=0;entryDy=0;strokeColor=#0000FF;exitX=0;exitY=0.5;exitDx=0;exitDy=0;" edge="1" parent="1" source="nEoBzrIvQ1YntwuLPByI-136" target="nEoBzrIvQ1YntwuLPByI-80">
          <mxGeometry width="50" height="50" relative="1" as="geometry">
            <mxPoint x="-437" y="-1201" as="sourcePoint" />
            <mxPoint x="-437" y="-831" as="targetPoint" />
            <Array as="points">
              <mxPoint x="-437" y="-1201" />
            </Array>
          </mxGeometry>
        </mxCell>
        <mxCell id="nEoBzrIvQ1YntwuLPByI-82" value="" style="endArrow=none;html=1;rounded=0;strokeWidth=4;strokeColor=#0000FF;entryX=0;entryY=0.5;entryDx=0;entryDy=0;exitX=1;exitY=0.5;exitDx=0;exitDy=0;" edge="1" parent="1" source="nEoBzrIvQ1YntwuLPByI-136" target="nEoBzrIvQ1YntwuLPByI-58">
          <mxGeometry width="50" height="50" relative="1" as="geometry">
            <mxPoint x="-239" y="-1201.53" as="sourcePoint" />
            <mxPoint x="166" y="-1201.53" as="targetPoint" />
          </mxGeometry>
        </mxCell>
        <mxCell id="nEoBzrIvQ1YntwuLPByI-83" value="" style="endArrow=none;html=1;rounded=0;strokeWidth=4;strokeColor=#0000FF;entryX=0.5;entryY=1;entryDx=0;entryDy=0;" edge="1" parent="1">
          <mxGeometry width="50" height="50" relative="1" as="geometry">
            <mxPoint x="-437.59000000000003" y="-400" as="sourcePoint" />
            <mxPoint x="-437.59000000000003" y="-591" as="targetPoint" />
            <Array as="points">
              <mxPoint x="-437.59000000000003" y="-400" />
            </Array>
          </mxGeometry>
        </mxCell>
        <mxCell id="nEoBzrIvQ1YntwuLPByI-84" value="" style="endArrow=none;html=1;rounded=0;strokeWidth=4;strokeColor=#0000FF;exitX=0.5;exitY=0;exitDx=0;exitDy=0;entryX=0.5;entryY=1;entryDx=0;entryDy=0;" edge="1" parent="1" source="nEoBzrIvQ1YntwuLPByI-85" target="nEoBzrIvQ1YntwuLPByI-132">
          <mxGeometry width="50" height="50" relative="1" as="geometry">
            <mxPoint x="-175" y="-480.48470052083337" as="sourcePoint" />
            <mxPoint x="-437" y="-791" as="targetPoint" />
          </mxGeometry>
        </mxCell>
        <mxCell id="nEoBzrIvQ1YntwuLPByI-85" value="" style="ellipse;whiteSpace=wrap;html=1;aspect=fixed;fillColor=#0000FF;strokeWidth=4;strokeColor=#0000FF;fontColor=#000000;" vertex="1" parent="1">
          <mxGeometry x="-447" y="-611" width="20" height="20" as="geometry" />
        </mxCell>
        <mxCell id="nEoBzrIvQ1YntwuLPByI-86" value="" style="rounded=0;whiteSpace=wrap;html=1;direction=south;strokeWidth=6;rotation=90;strokeColor=#0000FF;" vertex="1" parent="1">
          <mxGeometry x="-174" y="-641" width="40" height="80" as="geometry" />
        </mxCell>
        <mxCell id="nEoBzrIvQ1YntwuLPByI-87" value="" style="endArrow=none;html=1;rounded=0;strokeWidth=4;entryX=1;entryY=0.5;entryDx=0;entryDy=0;strokeColor=#0000FF;exitX=0;exitY=0.5;exitDx=0;exitDy=0;" edge="1" parent="1" source="nEoBzrIvQ1YntwuLPByI-134" target="nEoBzrIvQ1YntwuLPByI-85">
          <mxGeometry width="50" height="50" relative="1" as="geometry">
            <mxPoint x="-277" y="-601" as="sourcePoint" />
            <mxPoint x="-397" y="-571" as="targetPoint" />
          </mxGeometry>
        </mxCell>
        <mxCell id="nEoBzrIvQ1YntwuLPByI-88" value="&lt;font style=&quot;font-size: 50px;&quot;&gt;R&lt;sub&gt;t&lt;/sub&gt;&lt;/font&gt;" style="text;html=1;align=center;verticalAlign=middle;resizable=0;points=[];autosize=1;strokeColor=none;fillColor=none;strokeWidth=4;fontColor=#000000;" vertex="1" parent="1">
          <mxGeometry x="108" y="-561" width="70" height="80" as="geometry" />
        </mxCell>
        <mxCell id="nEoBzrIvQ1YntwuLPByI-89" value="&lt;font style=&quot;font-size: 50px;&quot;&gt;R&lt;sub&gt;t&lt;/sub&gt;&lt;/font&gt;" style="text;html=1;align=center;verticalAlign=middle;resizable=0;points=[];autosize=1;strokeColor=none;fillColor=none;strokeWidth=4;fontColor=#000000;" vertex="1" parent="1">
          <mxGeometry x="108" y="-841" width="70" height="80" as="geometry" />
        </mxCell>
        <mxCell id="nEoBzrIvQ1YntwuLPByI-90" value="&lt;font style=&quot;font-size: 50px;&quot;&gt;C&lt;sub&gt;2&lt;/sub&gt;&lt;/font&gt;&lt;div&gt;&lt;font style=&quot;font-size: 50px;&quot;&gt;103&lt;/font&gt;&lt;/div&gt;" style="text;html=1;align=center;verticalAlign=middle;resizable=0;points=[];autosize=1;strokeColor=none;fillColor=none;strokeWidth=4;fontColor=#000000;" vertex="1" parent="1">
          <mxGeometry x="88" y="-411" width="110" height="140" as="geometry" />
        </mxCell>
        <mxCell id="nEoBzrIvQ1YntwuLPByI-91" value="&lt;font style=&quot;font-size: 50px;&quot;&gt;C&lt;sub&gt;1&lt;/sub&gt;&lt;/font&gt;&lt;div&gt;&lt;font style=&quot;font-size: 50px;&quot;&gt;100uF&lt;/font&gt;&lt;/div&gt;" style="text;html=1;align=center;verticalAlign=middle;resizable=0;points=[];autosize=1;strokeColor=none;fillColor=none;strokeWidth=4;fontColor=#0000FF;" vertex="1" parent="1">
          <mxGeometry x="-145" y="-531" width="170" height="140" as="geometry" />
        </mxCell>
        <mxCell id="nEoBzrIvQ1YntwuLPByI-92" value="&lt;font style=&quot;font-size: 50px;&quot;&gt;R&lt;sub&gt;p1&lt;/sub&gt;&lt;/font&gt;&lt;div&gt;&lt;span style=&quot;background-color: transparent; font-size: 50px;&quot;&gt;10kΩ&lt;/span&gt;&lt;/div&gt;" style="text;html=1;align=center;verticalAlign=middle;resizable=0;points=[];autosize=1;strokeColor=none;fillColor=none;strokeWidth=4;fontColor=#0000FF;" vertex="1" parent="1">
          <mxGeometry x="-269" y="-599" width="140" height="140" as="geometry" />
        </mxCell>
        <mxCell id="nEoBzrIvQ1YntwuLPByI-93" value="&lt;font style=&quot;font-size: 50px;&quot;&gt;V&lt;sub&gt;i&lt;/sub&gt;&lt;/font&gt;" style="text;html=1;align=center;verticalAlign=middle;resizable=0;points=[];autosize=1;strokeColor=none;fillColor=none;strokeWidth=4;fontColor=#000000;" vertex="1" parent="1">
          <mxGeometry x="-47" y="-599" width="61" height="81" as="geometry" />
        </mxCell>
        <mxCell id="nEoBzrIvQ1YntwuLPByI-94" value="&lt;font style=&quot;font-size: 50px;&quot;&gt;V&lt;sub&gt;o&lt;/sub&gt;&lt;/font&gt;" style="text;html=1;align=center;verticalAlign=middle;resizable=0;points=[];autosize=1;strokeColor=none;fillColor=none;strokeWidth=4;fontColor=#000000;" vertex="1" parent="1">
          <mxGeometry x="693" y="-961.5" width="75" height="81" as="geometry" />
        </mxCell>
        <mxCell id="nEoBzrIvQ1YntwuLPByI-95" value="" style="endArrow=none;html=1;rounded=0;strokeWidth=4;strokeColor=#0000FF;" edge="1" parent="1">
          <mxGeometry width="50" height="50" relative="1" as="geometry">
            <mxPoint x="-15" y="-492" as="sourcePoint" />
            <mxPoint x="45" y="-492" as="targetPoint" />
          </mxGeometry>
        </mxCell>
        <mxCell id="nEoBzrIvQ1YntwuLPByI-96" value="" style="endArrow=none;html=1;rounded=0;strokeWidth=4;strokeColor=#0000FF;" edge="1" parent="1">
          <mxGeometry width="50" height="50" relative="1" as="geometry">
            <mxPoint x="-15" y="-471" as="sourcePoint" />
            <mxPoint x="45" y="-471" as="targetPoint" />
          </mxGeometry>
        </mxCell>
        <mxCell id="nEoBzrIvQ1YntwuLPByI-121" value="&lt;font style=&quot;font-size: 50px;&quot;&gt;R&lt;sub&gt;1&lt;/sub&gt;&lt;/font&gt;&lt;div&gt;&lt;font style=&quot;font-size: 50px;&quot;&gt;10kΩ&lt;/font&gt;&lt;/div&gt;" style="text;html=1;align=center;verticalAlign=middle;resizable=0;points=[];autosize=1;strokeColor=none;fillColor=none;strokeWidth=4;fontColor=#0000FF;" vertex="1" parent="1">
          <mxGeometry x="-597" y="-1056" width="140" height="140" as="geometry" />
        </mxCell>
        <mxCell id="nEoBzrIvQ1YntwuLPByI-122" value="" style="endArrow=none;html=1;rounded=0;strokeWidth=4;strokeColor=#0000FF;" edge="1" parent="1">
          <mxGeometry width="50" height="50" relative="1" as="geometry">
            <mxPoint x="-357" y="-561" as="sourcePoint" />
            <mxPoint x="-357" y="-641" as="targetPoint" />
            <Array as="points" />
          </mxGeometry>
        </mxCell>
        <mxCell id="nEoBzrIvQ1YntwuLPByI-123" value="" style="verticalLabelPosition=bottom;verticalAlign=top;html=1;shape=mxgraph.basic.acute_triangle;dx=0.5;rotation=180;strokeWidth=4;fillColor=none;direction=south;strokeColor=#0000FF;movable=1;resizable=1;rotatable=1;deletable=1;editable=1;locked=0;connectable=1;" vertex="1" parent="1">
          <mxGeometry x="-354" y="-638" width="53" height="75" as="geometry" />
        </mxCell>
        <mxCell id="nEoBzrIvQ1YntwuLPByI-124" value="" style="endArrow=classic;html=1;rounded=0;strokeWidth=4;entryX=0.5;entryY=1;entryDx=0;entryDy=0;strokeColor=#0000FF;" edge="1" parent="1" target="nEoBzrIvQ1YntwuLPByI-86">
          <mxGeometry width="50" height="50" relative="1" as="geometry">
            <mxPoint x="-77" y="-601" as="sourcePoint" />
            <mxPoint x="-147" y="-691" as="targetPoint" />
            <Array as="points">
              <mxPoint x="-77" y="-661" />
              <mxPoint x="-154" y="-661" />
            </Array>
          </mxGeometry>
        </mxCell>
        <mxCell id="nEoBzrIvQ1YntwuLPByI-125" value="&lt;span style=&quot;font-size: 50px;&quot;&gt;VD1&lt;/span&gt;" style="text;html=1;align=center;verticalAlign=middle;resizable=0;points=[];autosize=1;strokeColor=none;fillColor=none;strokeWidth=4;fontColor=#0000FF;" vertex="1" parent="1">
          <mxGeometry x="-397" y="-711" width="120" height="70" as="geometry" />
        </mxCell>
        <mxCell id="nEoBzrIvQ1YntwuLPByI-126" value="" style="endArrow=none;html=1;rounded=0;strokeWidth=6;fontColor=#000000;strokeColor=#0000FF;" edge="1" parent="1">
          <mxGeometry width="50" height="50" relative="1" as="geometry">
            <mxPoint x="-297" y="-812" as="sourcePoint" />
            <mxPoint x="-297" y="-892" as="targetPoint" />
          </mxGeometry>
        </mxCell>
        <mxCell id="nEoBzrIvQ1YntwuLPByI-127" value="" style="endArrow=none;html=1;rounded=0;strokeWidth=4;fontColor=#000000;strokeColor=#0000FF;" edge="1" parent="1">
          <mxGeometry width="50" height="50" relative="1" as="geometry">
            <mxPoint x="-297" y="-872" as="sourcePoint" />
            <mxPoint x="-257" y="-892" as="targetPoint" />
          </mxGeometry>
        </mxCell>
        <mxCell id="nEoBzrIvQ1YntwuLPByI-128" value="" style="endArrow=classic;html=1;rounded=0;strokeWidth=4;fontColor=#000000;strokeColor=#0000FF;" edge="1" parent="1">
          <mxGeometry width="50" height="50" relative="1" as="geometry">
            <mxPoint x="-297" y="-832" as="sourcePoint" />
            <mxPoint x="-257" y="-812" as="targetPoint" />
          </mxGeometry>
        </mxCell>
        <mxCell id="nEoBzrIvQ1YntwuLPByI-129" value="" style="endArrow=none;html=1;rounded=0;strokeWidth=4;fontColor=#000000;entryX=0.5;entryY=1;entryDx=0;entryDy=0;strokeColor=#0000FF;" edge="1" parent="1" target="nEoBzrIvQ1YntwuLPByI-136">
          <mxGeometry width="50" height="50" relative="1" as="geometry">
            <mxPoint x="-257" y="-891" as="sourcePoint" />
            <mxPoint x="-257" y="-1201" as="targetPoint" />
          </mxGeometry>
        </mxCell>
        <mxCell id="nEoBzrIvQ1YntwuLPByI-130" value="" style="endArrow=none;html=1;rounded=0;strokeWidth=4;fontColor=#000000;entryX=0.5;entryY=0;entryDx=0;entryDy=0;strokeColor=#0000FF;" edge="1" parent="1" target="nEoBzrIvQ1YntwuLPByI-134">
          <mxGeometry width="50" height="50" relative="1" as="geometry">
            <mxPoint x="-257" y="-812" as="sourcePoint" />
            <mxPoint x="-257" y="-601" as="targetPoint" />
          </mxGeometry>
        </mxCell>
        <mxCell id="nEoBzrIvQ1YntwuLPByI-131" value="" style="endArrow=none;html=1;rounded=0;strokeWidth=4;fontColor=#000000;entryX=1;entryY=0.5;entryDx=0;entryDy=0;strokeColor=#0000FF;" edge="1" parent="1" target="nEoBzrIvQ1YntwuLPByI-132">
          <mxGeometry width="50" height="50" relative="1" as="geometry">
            <mxPoint x="-297" y="-851" as="sourcePoint" />
            <mxPoint x="-377" y="-821" as="targetPoint" />
          </mxGeometry>
        </mxCell>
        <mxCell id="nEoBzrIvQ1YntwuLPByI-132" value="" style="ellipse;whiteSpace=wrap;html=1;aspect=fixed;fillColor=#0000FF;strokeWidth=4;strokeColor=#0000FF;fontColor=#000000;" vertex="1" parent="1">
          <mxGeometry x="-447" y="-861" width="20" height="20" as="geometry" />
        </mxCell>
        <mxCell id="nEoBzrIvQ1YntwuLPByI-133" value="" style="endArrow=none;html=1;rounded=0;strokeWidth=4;fontColor=#000000;entryX=0.5;entryY=0;entryDx=0;entryDy=0;exitX=1;exitY=0.5;exitDx=0;exitDy=0;strokeColor=#0000FF;" edge="1" parent="1" source="nEoBzrIvQ1YntwuLPByI-80" target="nEoBzrIvQ1YntwuLPByI-132">
          <mxGeometry width="50" height="50" relative="1" as="geometry">
            <mxPoint x="-287" y="-841" as="sourcePoint" />
            <mxPoint x="-417" y="-841" as="targetPoint" />
          </mxGeometry>
        </mxCell>
        <mxCell id="nEoBzrIvQ1YntwuLPByI-134" value="" style="ellipse;whiteSpace=wrap;html=1;aspect=fixed;fillColor=#0000FF;strokeWidth=4;strokeColor=#0000FF;fontColor=#000000;" vertex="1" parent="1">
          <mxGeometry x="-267" y="-610.5" width="20" height="20" as="geometry" />
        </mxCell>
        <mxCell id="nEoBzrIvQ1YntwuLPByI-135" value="" style="endArrow=none;html=1;rounded=0;strokeWidth=4;entryX=1;entryY=0.5;entryDx=0;entryDy=0;strokeColor=#0000FF;" edge="1" parent="1" target="nEoBzrIvQ1YntwuLPByI-134">
          <mxGeometry width="50" height="50" relative="1" as="geometry">
            <mxPoint x="-194" y="-600" as="sourcePoint" />
            <mxPoint x="-417" y="-591" as="targetPoint" />
          </mxGeometry>
        </mxCell>
        <mxCell id="nEoBzrIvQ1YntwuLPByI-136" value="" style="ellipse;whiteSpace=wrap;html=1;aspect=fixed;fillColor=#0000FF;strokeWidth=4;strokeColor=#0000FF;fontColor=#000000;" vertex="1" parent="1">
          <mxGeometry x="-267" y="-1211" width="20" height="20" as="geometry" />
        </mxCell>
        <mxCell id="nEoBzrIvQ1YntwuLPByI-137" value="&lt;span style=&quot;font-size: 50px;&quot;&gt;V1&lt;/span&gt;&lt;div&gt;&lt;span style=&quot;font-size: 50px;&quot;&gt;9013&lt;/span&gt;&lt;/div&gt;" style="text;html=1;align=center;verticalAlign=middle;resizable=0;points=[];autosize=1;strokeColor=none;fillColor=none;strokeWidth=4;fontColor=#0000FF;" vertex="1" parent="1">
          <mxGeometry x="-259" y="-911" width="130" height="130" as="geometry" />
        </mxCell>
        <mxCell id="nEoBzrIvQ1YntwuLPByI-138" value="" style="endArrow=none;html=1;rounded=0;strokeWidth=4;strokeColor=#000000;fontColor=#000000;entryX=1;entryY=0.5;entryDx=0;entryDy=0;" edge="1" parent="1" target="nEoBzrIvQ1YntwuLPByI-59">
          <mxGeometry width="50" height="50" relative="1" as="geometry">
            <mxPoint x="360" y="-300" as="sourcePoint" />
            <mxPoint x="110" y="-280" as="targetPoint" />
            <Array as="points">
              <mxPoint x="360" y="-280" />
            </Array>
          </mxGeometry>
        </mxCell>
        <mxCell id="nEoBzrIvQ1YntwuLPByI-139" value="" style="endArrow=none;html=1;rounded=0;entryX=0.188;entryY=-0.009;entryDx=0;entryDy=0;strokeWidth=4;fontColor=#000000;entryPerimeter=0;" edge="1" parent="1">
          <mxGeometry width="50" height="50" relative="1" as="geometry">
            <mxPoint x="680" y="-962" as="sourcePoint" />
            <mxPoint x="599.0799999999999" y="-961.8200000000002" as="targetPoint" />
          </mxGeometry>
        </mxCell>
      </root>
    </mxGraphModel>
  </diagram>
</mxfile>
